<?xml version="1.0" encoding="UTF-8"?>
<!DOCTYPE svg PUBLIC "-//W3C//DTD SVG 1.1//EN" "http://www.w3.org/Graphics/SVG/1.1/DTD/svg11.dtd">
<svg xmlns="http://www.w3.org/2000/svg" version="1.1" width="128px" height="128px" style="shape-rendering:geometricPrecision; text-rendering:geometricPrecision; image-rendering:optimizeQuality; fill-rule:evenodd; clip-rule:evenodd" xmlns:xlink="http://www.w3.org/1999/xlink">
<g><path style="opacity:0.999" fill="#0b4bd4" d="M 113.5,26.5 C 114.646,50.1239 114.813,73.7906 114,97.5C 111.833,106.333 106.333,111.833 97.5,114C 74.8333,114.667 52.1667,114.667 29.5,114C 20.2189,111.719 14.7189,105.886 13,96.5C 12.5,74.1692 12.3334,51.8358 12.5,29.5C 14.9855,20.8493 20.6522,15.3493 29.5,13C 52.1667,12.3333 74.8333,12.3333 97.5,13C 105.112,14.9497 110.445,19.4497 113.5,26.5 Z"/></g>
<g><path style="opacity:0.016" fill="#191a24" d="M 114.5,25.5 C 113.833,25.5 113.5,25.8333 113.5,26.5C 110.445,19.4497 105.112,14.9497 97.5,13C 74.8333,12.3333 52.1667,12.3333 29.5,13C 20.6522,15.3493 14.9855,20.8493 12.5,29.5C 11.6981,30.9516 11.1981,32.6183 11,34.5C 10.8307,46.6737 10.3307,58.6737 9.5,70.5C 9.09131,56.4491 9.59131,42.4491 11,28.5C 14.9307,17.4491 22.764,11.6158 34.5,11C 54.1667,10.3333 73.8333,10.3333 93.5,11C 103.669,11.4057 110.669,16.239 114.5,25.5 Z"/></g>
<g><path style="opacity:1" fill="#f8f9fc" d="M 92.5,26.5 C 92.8333,26.5 93.1667,26.5 93.5,26.5C 93.7828,27.2891 94.2828,27.9558 95,28.5C 95.769,43.8586 95.6024,59.1919 94.5,74.5C 87.8418,89.0007 76.8418,98.1674 61.5,102C 55.9739,99.0737 50.6406,95.9071 45.5,92.5C 38.7101,86.5896 34.2101,79.2563 32,70.5C 31.3333,56.5 31.3333,42.5 32,28.5C 32.5,28 33,27.5 33.5,27C 53.1638,26.5 72.8305,26.3334 92.5,26.5 Z"/></g>
<g><path style="opacity:1" fill="#0a40b5" d="M 93.5,26.5 C 95.0174,26.5106 96.1841,27.1772 97,28.5C 97.6667,43.1667 97.6667,57.8333 97,72.5C 96.5831,73.756 95.7498,74.4226 94.5,74.5C 95.6024,59.1919 95.769,43.8586 95,28.5C 94.2828,27.9558 93.7828,27.2891 93.5,26.5 Z"/></g>
<g><path style="opacity:1" fill="#0c42bb" d="M 92.5,26.5 C 72.8305,26.3334 53.1638,26.5 33.5,27C 33,27.5 32.5,28 32,28.5C 31.3333,42.5 31.3333,56.5 32,70.5C 34.2101,79.2563 38.7101,86.5896 45.5,92.5C 40.5806,89.2517 36.2472,85.2517 32.5,80.5C 31.3657,77.9302 30.5323,75.2635 30,72.5C 29.1829,57.122 29.3495,41.7887 30.5,26.5C 51.3294,25.1719 71.9961,25.1719 92.5,26.5 Z"/></g>
<g><path style="opacity:0.096" fill="#0c0d16" d="M 114.5,25.5 C 115.776,27.5625 116.61,29.8958 117,32.5C 117.667,53.8333 117.667,75.1667 117,96.5C 115.405,108.096 108.905,115.262 97.5,118C 75.1667,118.667 52.8333,118.667 30.5,118C 20.9246,116.13 14.4246,110.63 11,101.5C 9.63022,91.2227 9.13022,80.8894 9.5,70.5C 10.3307,58.6737 10.8307,46.6737 11,34.5C 11.1981,32.6183 11.6981,30.9516 12.5,29.5C 12.3334,51.8358 12.5,74.1692 13,96.5C 14.7189,105.886 20.2189,111.719 29.5,114C 52.1667,114.667 74.8333,114.667 97.5,114C 106.333,111.833 111.833,106.333 114,97.5C 114.813,73.7906 114.646,50.1239 113.5,26.5C 113.5,25.8333 113.833,25.5 114.5,25.5 Z"/></g>
<g><path style="opacity:1" fill="#9fb0d6" d="M 63.5,35.5 C 71.3159,34.5076 79.3159,34.1743 87.5,34.5C 87.8283,46.3453 87.4949,58.012 86.5,69.5C 86.5,58.1667 86.5,46.8333 86.5,35.5C 79.1667,35.5 71.8333,35.5 64.5,35.5C 64.1667,35.5 63.8333,35.5 63.5,35.5 Z"/></g>
<g><path style="opacity:1" fill="#0a4bd3" d="M 85.5,72.5 C 85.5,72.8333 85.5,73.1667 85.5,73.5C 84.5041,73.4142 83.6708,73.7476 83,74.5C 80.3841,80.6279 75.8841,84.2946 69.5,85.5C 69.8333,88.5 68.5,89.8333 65.5,89.5C 65.5,71.8333 65.5,54.1667 65.5,36.5C 72.1667,36.5 78.8333,36.5 85.5,36.5C 85.5,48.5 85.5,60.5 85.5,72.5 Z"/></g>
<g><path style="opacity:1" fill="#0e40b2" d="M 64.5,35.5 C 71.8333,35.5 79.1667,35.5 86.5,35.5C 86.5,46.8333 86.5,58.1667 86.5,69.5C 86.7373,70.791 86.404,71.791 85.5,72.5C 85.5,60.5 85.5,48.5 85.5,36.5C 78.8333,36.5 72.1667,36.5 65.5,36.5C 65.5,54.1667 65.5,71.8333 65.5,89.5C 68.5,89.8333 69.8333,88.5 69.5,85.5C 75.8841,84.2946 80.3841,80.6279 83,74.5C 83.6708,73.7476 84.5041,73.4142 85.5,73.5C 81.5,80.8333 75.8333,86.5 68.5,90.5C 67.1667,90.5 65.8333,90.5 64.5,90.5C 64.5,72.1667 64.5,53.8333 64.5,35.5 Z"/></g>
<g><path style="opacity:1" fill="#143e9b" d="M 63.5,35.5 C 63.8333,35.5 64.1667,35.5 64.5,35.5C 64.5,53.8333 64.5,72.1667 64.5,90.5C 65.8333,90.5 67.1667,90.5 68.5,90.5C 67.1516,91.6006 65.6516,92.6006 64,93.5C 63.5,74.1695 63.3334,54.8362 63.5,35.5 Z"/></g>
<g><path style="opacity:1" fill="#1543b4" d="M 94.5,74.5 C 95.1276,79.0385 93.6276,82.7051 90,85.5C 83.7468,91.761 77.2468,97.5943 70.5,103C 60.9566,105.119 52.9566,102.619 46.5,95.5C 45.8728,94.5832 45.5394,93.5832 45.5,92.5C 50.6406,95.9071 55.9739,99.0737 61.5,102C 76.8418,98.1674 87.8418,89.0007 94.5,74.5 Z"/></g>
</svg>
