<?xml version="1.0" encoding="UTF-8"?>
<!DOCTYPE svg PUBLIC "-//W3C//DTD SVG 1.1//EN" "http://www.w3.org/Graphics/SVG/1.1/DTD/svg11.dtd">
<svg xmlns="http://www.w3.org/2000/svg" version="1.1" width="1280px" height="720px" style="shape-rendering:geometricPrecision; text-rendering:geometricPrecision; image-rendering:optimizeQuality; fill-rule:evenodd; clip-rule:evenodd" xmlns:xlink="http://www.w3.org/1999/xlink">
<g><path style="opacity:1" fill="#fefefe" d="M -0.5,-0.5 C 426.167,-0.5 852.833,-0.5 1279.5,-0.5C 1279.5,239.5 1279.5,479.5 1279.5,719.5C 852.833,719.5 426.167,719.5 -0.5,719.5C -0.5,479.5 -0.5,239.5 -0.5,-0.5 Z"/></g>
<g><path style="opacity:1" fill="#1c5ddc" d="M 539.5,170.5 C 606.167,170.333 672.834,170.5 739.5,171C 743.251,172.415 746.084,174.915 748,178.5C 748.667,224.5 748.667,270.5 748,316.5C 745.68,335.468 738.68,352.468 727,367.5C 703.2,395.558 674.2,416.224 640,429.5C 601.497,414.561 570.164,390.228 546,356.5C 538.864,344.426 534.531,331.426 533,317.5C 532.333,270.833 532.333,224.167 533,177.5C 534.694,174.642 536.861,172.309 539.5,170.5 Z"/></g>
<g><path style="opacity:1" fill="#fefefe" d="M 640.5,198.5 C 666.833,198.5 693.167,198.5 719.5,198.5C 719.667,239.501 719.5,280.501 719,321.5C 716.949,330.268 713.282,338.268 708,345.5C 689.117,367.776 666.784,385.776 641,399.5C 640.5,332.501 640.333,265.501 640.5,198.5 Z"/></g>
<g><path style="opacity:1" fill="#225fdc" d="M 428.5,446.5 C 440.682,446.227 445.182,451.893 442,463.5C 437.258,469.764 431.425,470.931 424.5,467C 418.263,458.575 419.597,451.741 428.5,446.5 Z"/></g>
<g><path style="opacity:1" fill="#1b5ddc" d="M 341.5,447.5 C 347.425,447.192 353.259,447.525 359,448.5C 359.333,460.5 359.667,472.5 360,484.5C 369.356,473.869 380.523,471.702 393.5,478C 400.886,483.597 405.053,491.097 406,500.5C 407.639,512.562 406.305,524.228 402,535.5C 395.52,545.489 386.353,549.656 374.5,548C 368.6,546.718 363.6,543.885 359.5,539.5C 357.474,541.705 355.808,544.205 354.5,547C 349.913,547.799 345.413,547.632 341,546.5C 340.175,513.428 340.341,480.428 341.5,447.5 Z"/></g>
<g><path style="opacity:1" fill="#215fdc" d="M 785.5,447.5 C 787.39,447.297 788.89,447.963 790,449.5C 790.5,481.832 790.667,514.165 790.5,546.5C 789.167,546.5 787.833,546.5 786.5,546.5C 786.112,543.121 785.445,539.788 784.5,536.5C 777.21,546.101 767.543,549.934 755.5,548C 745.688,546.187 738.855,540.687 735,531.5C 732.582,521.643 731.915,511.643 733,501.5C 736.98,482.085 748.813,473.919 768.5,477C 775.362,478.526 780.528,482.359 784,488.5C 784.184,474.759 784.684,461.092 785.5,447.5 Z"/></g>
<g><path style="opacity:1" fill="#1b5ddc" d="M 471.5,460.5 C 475.5,460.5 479.5,460.5 483.5,460.5C 483.5,465.5 483.5,470.5 483.5,475.5C 490.167,475.5 496.833,475.5 503.5,475.5C 503.5,480.5 503.5,485.5 503.5,490.5C 496.833,490.5 490.167,490.5 483.5,490.5C 483.038,503.599 483.538,516.599 485,529.5C 485.833,530.333 486.667,531.167 487.5,532C 493.188,532.554 498.855,532.387 504.5,531.5C 504.827,536.214 504.493,540.88 503.5,545.5C 493.071,549.432 482.738,549.266 472.5,545C 468.044,541.587 465.544,537.087 465,531.5C 464.5,517.837 464.333,504.171 464.5,490.5C 455.682,492.919 452.682,489.919 455.5,481.5C 459.408,479.755 462.908,477.422 466,474.5C 467.743,469.765 469.577,465.098 471.5,460.5 Z"/></g>
<g><path style="opacity:1" fill="#1b5ddc" d="M 423.5,475.5 C 429.425,475.192 435.259,475.525 441,476.5C 441.827,500.073 441.66,523.573 440.5,547C 434.584,547.807 428.75,547.641 423,546.5C 422.178,522.761 422.344,499.094 423.5,475.5 Z"/></g>
<g><path style="opacity:1" fill="#2760dc" d="M 636.5,476.5 C 643.506,475.907 650.173,477.074 656.5,480C 659.433,482.264 661.6,485.098 663,488.5C 664.616,507.781 664.95,527.115 664,546.5C 662.413,547.727 661.079,547.394 660,545.5C 659.821,542.447 659.321,539.447 658.5,536.5C 649.398,547.078 638.065,550.578 624.5,547C 615.246,542.327 611.413,534.827 613,524.5C 615.573,516.261 621.073,511.095 629.5,509C 639.042,506.857 648.708,506.024 658.5,506.5C 660.696,486.527 652.03,478.693 632.5,483C 629.382,483.873 626.382,485.039 623.5,486.5C 620.687,485.383 620.02,483.55 621.5,481C 626.482,479.01 631.482,477.51 636.5,476.5 Z"/></g>
<g><path style="opacity:1" fill="#3b67dd" d="M 707.5,476.5 C 712.179,476.334 716.845,476.501 721.5,477C 722.406,478.699 722.739,480.533 722.5,482.5C 707.806,479.593 698.306,485.26 694,499.5C 693.667,514.833 693.333,530.167 693,545.5C 691.274,546.576 689.441,546.743 687.5,546C 686.34,523.906 686.173,501.739 687,479.5C 688.667,476.833 690.333,476.833 692,479.5C 692.333,483.167 692.667,486.833 693,490.5C 696.433,484.231 701.266,479.564 707.5,476.5 Z"/></g>
<g><path style="opacity:1" fill="#205edc" d="M 834.5,476.5 C 852.376,474.882 862.876,482.882 866,500.5C 866.499,504.821 866.666,509.154 866.5,513.5C 849.833,513.5 833.167,513.5 816.5,513.5C 817.651,536.469 829.651,545.969 852.5,542C 855.988,540.405 859.488,539.905 863,540.5C 863.49,541.793 863.657,543.127 863.5,544.5C 852.725,548.222 841.725,549.055 830.5,547C 815.891,540.462 809.224,529.129 810.5,513C 809.281,494.445 817.281,482.278 834.5,476.5 Z"/></g>
<g><path style="opacity:1" fill="#1f5edc" d="M 908.5,476.5 C 914.898,476.243 921.231,476.743 927.5,478C 933.061,480.562 936.894,484.728 939,490.5C 940.552,508.802 940.886,527.135 940,545.5C 938.301,546.406 936.467,546.739 934.5,546.5C 934.946,528.444 934.446,510.444 933,492.5C 929.394,484.611 923.227,481.278 914.5,482.5C 901.265,482.562 893.765,489.228 892,502.5C 891.5,517.163 891.333,531.83 891.5,546.5C 889.533,546.739 887.699,546.406 886,545.5C 885.333,523.5 885.333,501.5 886,479.5C 886.837,477.993 888.004,477.493 889.5,478C 891.189,480.557 892.356,483.391 893,486.5C 897.205,481.492 902.372,478.159 908.5,476.5 Z"/></g>
<g><path style="opacity:1" fill="#2760dc" d="M 517.5,477.5 C 519.39,477.297 520.89,477.963 522,479.5C 527.347,499.535 532.681,519.535 538,539.5C 543.719,519.343 550.052,499.343 557,479.5C 559.333,476.833 561.667,476.833 564,479.5C 570.657,499.127 576.991,518.794 583,538.5C 587.719,518.74 592.719,499.073 598,479.5C 599.133,477.789 600.633,477.289 602.5,478C 603.591,480.064 603.758,482.231 603,484.5C 597.667,504.5 592.333,524.5 587,544.5C 584.284,548.476 581.617,548.476 579,544.5C 572.527,525.582 566.361,506.582 560.5,487.5C 553.908,506.776 547.408,526.109 541,545.5C 539.062,547.978 536.895,548.145 534.5,546C 528.173,524.362 521.839,502.695 515.5,481C 515.978,479.697 516.645,478.531 517.5,477.5 Z"/></g>
<g><path style="opacity:1" fill="#fcfcfe" d="M 753.5,482.5 C 768.454,478.95 778.288,484.283 783,498.5C 785.737,510.865 784.737,522.865 780,534.5C 773.111,542.112 764.611,544.612 754.5,542C 746.611,539.742 741.778,534.575 740,526.5C 737.298,514.491 738.298,502.824 743,491.5C 746.078,487.915 749.578,484.915 753.5,482.5 Z"/></g>
<g><path style="opacity:1" fill="#fcfcfe" d="M 835.5,481.5 C 852.109,482.112 860.109,490.779 859.5,507.5C 845.167,507.5 830.833,507.5 816.5,507.5C 817.042,494.354 823.376,485.687 835.5,481.5 Z"/></g>
<g><path style="opacity:1" fill="#fafafd" d="M 370.5,489.5 C 380.237,489.734 385.737,494.734 387,504.5C 388.647,513.543 386.98,521.876 382,529.5C 369.883,535.775 362.55,532.109 360,518.5C 359.171,511.766 359.504,505.099 361,498.5C 362.775,493.888 365.942,490.888 370.5,489.5 Z"/></g>
<g><path style="opacity:1" fill="#fbfbfe" d="M 647.5,511.5 C 651.167,511.5 654.833,511.5 658.5,511.5C 660.658,533.842 650.658,544.008 628.5,542C 620.695,538.219 617.862,532.053 620,523.5C 621.793,520.705 623.96,518.205 626.5,516C 633.424,513.463 640.424,511.963 647.5,511.5 Z"/></g>
</svg>
