<?xml version="1.0" encoding="UTF-8"?>
<!DOCTYPE svg PUBLIC "-//W3C//DTD SVG 1.1//EN" "http://www.w3.org/Graphics/SVG/1.1/DTD/svg11.dtd">
<svg xmlns="http://www.w3.org/2000/svg" version="1.1" width="128px" height="128px" style="shape-rendering:geometricPrecision; text-rendering:geometricPrecision; image-rendering:optimizeQuality; fill-rule:evenodd; clip-rule:evenodd" xmlns:xlink="http://www.w3.org/1999/xlink">
<g><path style="opacity:0.994" fill="#fefefe" d="M -0.5,27.5 C 42.1667,27.5 84.8333,27.5 127.5,27.5C 127.5,51.5 127.5,75.5 127.5,99.5C 84.8333,99.5 42.1667,99.5 -0.5,99.5C -0.5,75.5 -0.5,51.5 -0.5,27.5 Z"/></g>
<g><path style="opacity:1" fill="#2964dd" d="M 53.5,44.5 C 60.4222,44.1878 67.2555,44.5212 74,45.5C 77.5515,57.0568 74.0515,65.3901 63.5,70.5C 52.7303,64.8911 49.397,56.2245 53.5,44.5 Z"/></g>
<g><path style="opacity:1" fill="#f9fafe" d="M 63.5,47.5 C 66.1667,47.5 68.8333,47.5 71.5,47.5C 71.6657,51.8461 71.499,56.1794 71,60.5C 69.3333,63.5 67,65.8333 64,67.5C 63.5004,60.8417 63.3337,54.175 63.5,47.5 Z"/></g>
<g><path style="opacity:1" fill="#356bdf" d="M 33.5,72.5 C 34.9311,72.8807 35.7645,73.8807 36,75.5C 37.5874,74.273 38.9207,74.6063 40,76.5C 40.9774,79.259 40.144,81.259 37.5,82.5C 36.5,81.1667 35.5,81.1667 34.5,82.5C 33.513,79.2317 33.1796,75.8984 33.5,72.5 Z"/></g>
<g><path style="opacity:1" fill="#4674e1" d="M 46.5,73.5 C 49.6222,74.085 50.2889,75.7517 48.5,78.5C 51.2566,81.1235 50.59,82.4569 46.5,82.5C 46.108,79.3243 46.108,76.3243 46.5,73.5 Z"/></g>
<g><path style="opacity:1" fill="#7092e7" d="M 41.5,72.5 C 42.675,72.281 43.675,72.6143 44.5,73.5C 43.9149,76.5027 43.2482,79.5027 42.5,82.5C 41.513,79.2317 41.1796,75.8984 41.5,72.5 Z"/></g>
<g><path style="opacity:1" fill="#c3d3f5" d="M 67.5,75.5 C 68.7251,76.1522 69.3917,77.3189 69.5,79C 69.1667,80.1667 68.8333,81.3333 68.5,82.5C 67.5258,80.2573 67.1924,77.924 67.5,75.5 Z"/></g>
<g><path style="opacity:1" fill="#dfe7fa" d="M 35.5,76.5 C 36.5,76.5 37.5,76.5 38.5,76.5C 38.5,77.8333 38.5,79.1667 38.5,80.5C 37.5,80.5 36.5,80.5 35.5,80.5C 35.5,79.1667 35.5,77.8333 35.5,76.5 Z"/></g>
<g><path style="opacity:1" fill="#c7d6f6" d="M 81.5,79.5 C 81.5,78.5 81.5,77.5 81.5,76.5C 82.0024,74.9153 83.0024,74.4153 84.5,75C 86.0368,76.1096 86.7035,77.6096 86.5,79.5C 84.8333,79.5 83.1667,79.5 81.5,79.5 Z"/></g>
<g><path style="opacity:1" fill="#8daded" d="M 89.5,74.5 C 90.8221,74.33 91.9887,74.6634 93,75.5C 93.6667,77.8333 93.6667,80.1667 93,82.5C 92.5045,80.5273 92.3379,78.5273 92.5,76.5C 91.1667,76.5 89.8333,76.5 88.5,76.5C 88.6621,78.5273 88.4955,80.5273 88,82.5C 87.1329,79.4791 87.6329,76.8124 89.5,74.5 Z"/></g>
<g><path style="opacity:1" fill="#93b0ed" d="M 54.5,75.5 C 55.3764,75.3691 56.0431,75.7025 56.5,76.5C 54.1672,83.0806 52.6672,83.0806 52,76.5C 53.5158,79.0515 54.3491,78.7181 54.5,75.5 Z"/></g>
<g><path style="opacity:1" fill="#95b1ee" d="M 58.5,76.5 C 59.709,78.4346 59.5423,80.4346 58,82.5C 57.5,81.5 57,80.5 56.5,79.5C 56.8457,78.3044 57.3457,78.3044 58,79.5C 58.4828,78.552 58.6495,77.552 58.5,76.5 Z"/></g>
<g><path style="opacity:1" fill="#bacbf4" d="M 62.5,74.5 C 63.5832,74.5394 64.5832,74.8728 65.5,75.5C 66.6474,77.7649 66.8141,80.0982 66,82.5C 64.6796,82.201 63.1796,82.0343 61.5,82C 60.7239,79.0706 62.0573,77.404 65.5,77C 64.1667,76.6667 62.8333,76.3333 61.5,76C 62.056,75.6174 62.3893,75.1174 62.5,74.5 Z"/></g>
<g><path style="opacity:1" fill="#7c9fea" d="M 77.5,72.5 C 78.4794,75.6248 78.8128,78.9581 78.5,82.5C 73.3248,83.4929 71.4914,81.4929 73,76.5C 73.3333,77.8333 73.6667,79.1667 74,80.5C 75,81.8333 76,81.8333 77,80.5C 76.6533,77.7287 76.82,75.0621 77.5,72.5 Z"/></g>
<g><path style="opacity:1" fill="#789dea" d="M 81.5,76.5 C 81.5,77.5 81.5,78.5 81.5,79.5C 82.347,80.9663 83.6803,81.7996 85.5,82C 80.7328,82.6641 79.3995,80.8307 81.5,76.5 Z"/></g>
</svg>
