<?xml version="1.0" encoding="UTF-8"?>
<!DOCTYPE svg PUBLIC "-//W3C//DTD SVG 1.1//EN" "http://www.w3.org/Graphics/SVG/1.1/DTD/svg11.dtd">
<svg xmlns="http://www.w3.org/2000/svg" version="1.1" width="128px" height="128px" style="shape-rendering:geometricPrecision; text-rendering:geometricPrecision; image-rendering:optimizeQuality; fill-rule:evenodd; clip-rule:evenodd" xmlns:xlink="http://www.w3.org/1999/xlink">
<g><path style="opacity:1" fill="#dddad9" d="M 31.5,4.5 C 30.8826,4.61071 30.3826,4.94404 30,5.5C 29.5026,8.14603 29.3359,10.8127 29.5,13.5C 28.603,14.5981 27.7697,14.5981 27,13.5C 26.5026,10.854 26.3359,8.1873 26.5,5.5C 26.5,4.5 26.5,3.5 26.5,2.5C 28.7812,2.07729 30.4479,2.74395 31.5,4.5 Z"/></g>
<g><path style="opacity:1" fill="#cac8c7" d="M 103.5,15.5 C 102.833,15.5 102.5,15.8333 102.5,16.5C 101.504,16.5858 100.671,16.2524 100,15.5C 99.117,11.4665 98.2837,7.46649 97.5,3.5C 98.8845,2.19914 100.384,2.19914 102,3.5C 102.828,7.46596 103.328,11.466 103.5,15.5 Z"/></g>
<g><path style="opacity:0.718" fill="#534d4d" d="M 97.5,3.5 C 98.2837,7.46649 99.117,11.4665 100,15.5C 100.671,16.2524 101.504,16.5858 102.5,16.5C 102.5,17.5 102.5,18.5 102.5,19.5C 107.032,19.1818 111.366,19.5151 115.5,20.5C 111.167,20.5 106.833,20.5 102.5,20.5C 102.663,22.8568 102.497,25.1902 102,27.5C 99.7997,28.9901 97.9664,28.6568 96.5,26.5C 98.0863,24.8273 98.7529,22.8273 98.5,20.5C 98.5,20.1667 98.5,19.8333 98.5,19.5C 98.5,18.5 98.5,17.5 98.5,16.5C 75.5,16.5 52.5,16.5 29.5,16.5C 29.5,15.5 29.5,14.5 29.5,13.5C 29.3359,10.8127 29.5026,8.14603 30,5.5C 30.3826,4.94404 30.8826,4.61071 31.5,4.5C 32.4816,7.96192 32.815,11.6286 32.5,15.5C 42.5222,15.8319 52.5222,15.4985 62.5,14.5C 63.989,9.35415 64.6557,9.68748 64.5,15.5C 74.8333,15.5 85.1667,15.5 95.5,15.5C 95.7167,11.2949 96.3833,7.29489 97.5,3.5 Z"/></g>
<g><path style="opacity:1" fill="#222222" d="M 29.5,16.5 C 52.5,16.5 75.5,16.5 98.5,16.5C 98.5,17.5 98.5,18.5 98.5,19.5C 75.5,19.5 52.5,19.5 29.5,19.5C 29.5,18.5 29.5,17.5 29.5,16.5 Z"/></g>
<g><path style="opacity:0.98" fill="#211e1e" d="M 12.5,15.5 C 16.6344,16.4849 20.9677,16.8182 25.5,16.5C 25.5,17.5 25.5,18.5 25.5,19.5C 20.9677,19.1818 16.6344,19.5151 12.5,20.5C 11.5098,26.6446 11.1765,32.9779 11.5,39.5C 11.5,41.5 11.5,43.5 11.5,45.5C 10.2905,45.9321 9.29049,46.5987 8.5,47.5C 8.16667,47.5 7.83333,47.5 7.5,47.5C 7.33353,37.8276 7.5002,28.1609 8,18.5C 8.9184,16.6243 10.4184,15.6243 12.5,15.5 Z"/></g>
<g><path style="opacity:1" fill="#8a6465" d="M 26.5,5.5 C 26.3359,8.1873 26.5026,10.854 27,13.5C 27.7697,14.5981 28.603,14.5981 29.5,13.5C 29.5,14.5 29.5,15.5 29.5,16.5C 29.5,17.5 29.5,18.5 29.5,19.5C 52.5,19.5 75.5,19.5 98.5,19.5C 98.5,19.8333 98.5,20.1667 98.5,20.5C 85.8289,20.3334 73.1623,20.5001 60.5,21C 60,21.5 59.5,22 59,22.5C 49.4282,20.5411 39.5949,19.8745 29.5,20.5C 29.4326,21.9587 29.7659,23.2921 30.5,24.5C 29.791,25.404 28.791,25.7373 27.5,25.5C 27.8412,21.8405 27.1745,18.5072 25.5,15.5C 25.1872,11.9581 25.5206,8.62482 26.5,5.5 Z"/></g>
<g><path style="opacity:0.981" fill="#1a1a1a" d="M 103.5,15.5 C 108.511,15.3341 113.511,15.5007 118.5,16C 119,16.5 119.5,17 120,17.5C 121.456,28.7312 121.956,40.0645 121.5,51.5C 120.539,53.2646 120.205,55.2646 120.5,57.5C 120.433,58.9587 120.766,60.2921 121.5,61.5C 121.5,62.5 121.5,63.5 121.5,64.5C 121.167,65.8333 120.833,67.1667 120.5,68.5C 119.833,68.8333 119.167,69.1667 118.5,69.5C 118.768,67.901 118.434,66.5676 117.5,65.5C 117.5,63.1667 117.5,60.8333 117.5,58.5C 117.5,52.1667 117.5,45.8333 117.5,39.5C 117.666,33.4908 117.499,27.4908 117,21.5C 116.617,20.944 116.117,20.6107 115.5,20.5C 111.366,19.5151 107.032,19.1818 102.5,19.5C 102.5,18.5 102.5,17.5 102.5,16.5C 102.5,15.8333 102.833,15.5 103.5,15.5 Z"/></g>
<g><path style="opacity:1" fill="#513e3c" d="M 12.5,15.5 C 16.8333,15.5 21.1667,15.5 25.5,15.5C 27.1745,18.5072 27.8412,21.8405 27.5,25.5C 28.791,25.7373 29.791,25.404 30.5,24.5C 31.8505,27.8281 30.5172,29.1614 26.5,28.5C 26.5,25.8333 26.5,23.1667 26.5,20.5C 21.8333,20.5 17.1667,20.5 12.5,20.5C 16.6344,19.5151 20.9677,19.1818 25.5,19.5C 25.5,18.5 25.5,17.5 25.5,16.5C 20.9677,16.8182 16.6344,16.4849 12.5,15.5 Z"/></g>
<g><path style="opacity:1" fill="#bf2a33" d="M 12.5,20.5 C 17.1667,20.5 21.8333,20.5 26.5,20.5C 26.5,23.1667 26.5,25.8333 26.5,28.5C 30.5172,29.1614 31.8505,27.8281 30.5,24.5C 29.7659,23.2921 29.4326,21.9587 29.5,20.5C 39.5949,19.8745 49.4282,20.5411 59,22.5C 59.5,22 60,21.5 60.5,21C 73.1623,20.5001 85.8289,20.3334 98.5,20.5C 98.7529,22.8273 98.0863,24.8273 96.5,26.5C 97.9664,28.6568 99.7997,28.9901 102,27.5C 102.497,25.1902 102.663,22.8568 102.5,20.5C 106.833,20.5 111.167,20.5 115.5,20.5C 116.117,20.6107 116.617,20.944 117,21.5C 117.499,27.4908 117.666,33.4908 117.5,39.5C 88.8333,39.5 60.1667,39.5 31.5,39.5C 36.6132,36.4409 41.9466,33.6076 47.5,31C 48.6956,30.3457 48.6956,29.8457 47.5,29.5C 40.5303,33.1539 33.5303,36.4872 26.5,39.5C 25.8333,39.5 25.1667,39.5 24.5,39.5C 20.1667,39.5 15.8333,39.5 11.5,39.5C 11.1765,32.9779 11.5098,26.6446 12.5,20.5 Z"/></g>
<g><path style="opacity:1" fill="#a5816f" d="M 31.5,39.5 C 31.1667,39.5 30.8333,39.5 30.5,39.5C 30.1667,39.5 29.8333,39.5 29.5,39.5C 28.5,39.5 27.5,39.5 26.5,39.5C 33.5303,36.4872 40.5303,33.1539 47.5,29.5C 48.6956,29.8457 48.6956,30.3457 47.5,31C 41.9466,33.6076 36.6132,36.4409 31.5,39.5 Z"/></g>
<g><path style="opacity:1" fill="#eeddde" d="M 30.5,39.5 C 30.8333,39.5 31.1667,39.5 31.5,39.5C 60.1667,39.5 88.8333,39.5 117.5,39.5C 117.5,45.8333 117.5,52.1667 117.5,58.5C 116.51,52.69 116.177,46.69 116.5,40.5C 87.6618,40.8313 58.9951,40.498 30.5,39.5 Z"/></g>
<g><path style="opacity:1" fill="#f9f7f6" d="M 11.5,39.5 C 15.8333,39.5 20.1667,39.5 24.5,39.5C 20.3509,41.7389 16.0175,43.7389 11.5,45.5C 11.5,43.5 11.5,41.5 11.5,39.5 Z"/></g>
<g><path style="opacity:1" fill="#fefefe" d="M 29.5,39.5 C 29.8333,39.5 30.1667,39.5 30.5,39.5C 58.9951,40.498 87.6618,40.8313 116.5,40.5C 116.177,46.69 116.51,52.69 117.5,58.5C 117.5,60.8333 117.5,63.1667 117.5,65.5C 117.762,66.9778 117.429,68.3112 116.5,69.5C 115.174,68.0098 113.674,66.6765 112,65.5C 111.037,59.535 110.537,53.535 110.5,47.5C 80.1667,47.5 49.8333,47.5 19.5,47.5C 20.4293,46.6851 21.4293,45.8518 22.5,45C 21.944,44.6174 21.6107,44.1174 21.5,43.5C 24.232,42.134 26.8987,40.8007 29.5,39.5 Z"/></g>
<g><path style="opacity:1" fill="#a4ebc5" d="M 24.5,39.5 C 25.1667,39.5 25.8333,39.5 26.5,39.5C 27.5,39.5 28.5,39.5 29.5,39.5C 26.8987,40.8007 24.232,42.134 21.5,43.5C 17.9562,44.7895 14.6229,46.4561 11.5,48.5C 10.609,49.1098 9.60895,49.4431 8.5,49.5C 8.5,48.8333 8.5,48.1667 8.5,47.5C 9.29049,46.5987 10.2905,45.9321 11.5,45.5C 16.0175,43.7389 20.3509,41.7389 24.5,39.5 Z"/></g>
<g><path style="opacity:0.968" fill="#faf9f7" d="M 21.5,43.5 C 21.6107,44.1174 21.944,44.6174 22.5,45C 21.4293,45.8518 20.4293,46.6851 19.5,47.5C 18.1858,49.9151 17.5191,52.7485 17.5,56C 17.6667,58.8333 17.8333,61.6667 18,64.5C 18.4828,63.552 18.6495,62.552 18.5,61.5C 22.5,61.5 26.5,61.5 30.5,61.5C 30.6282,65.8814 30.2949,70.2147 29.5,74.5C 25.5,74.5 21.5,74.5 17.5,74.5C 17.6567,73.1266 17.49,71.7932 17,70.5C 15.8543,77.2122 14.8543,83.8789 14,90.5C 18.0659,89.5363 22.2325,89.203 26.5,89.5C 25.6457,93.5826 24.479,97.5826 23,101.5C 20.2595,102.282 17.4262,102.782 14.5,103C 23.1687,103.452 31.502,102.285 39.5,99.5C 45.4628,98.2905 51.1295,96.2905 56.5,93.5C 62.5146,91.439 68.5146,89.2723 74.5,87C 73.552,86.5172 72.552,86.3505 71.5,86.5C 71.1924,84.076 71.5258,81.7427 72.5,79.5C 76.5,78.5 80.5,77.5 84.5,76.5C 85.776,81.6817 86.4427,81.6817 86.5,76.5C 90.1716,75.9553 89.8383,75.6219 85.5,75.5C 85.5,73.1667 85.5,70.8333 85.5,68.5C 89.4809,67.9791 93.4809,67.6458 97.5,67.5C 97.9361,69.7463 98.6028,71.9129 99.5,74C 90.1667,74.6667 90.1667,75.3333 99.5,76C 100.874,79.4101 101.541,79.2434 101.5,75.5C 103.869,75.1489 106.203,74.9822 108.5,75C 106.416,75.6972 104.749,76.8639 103.5,78.5C 95.2894,83.105 86.9561,87.4383 78.5,91.5C 75.904,92.0549 73.5707,93.0549 71.5,94.5C 65.5149,96.2671 59.8483,98.6004 54.5,101.5C 46.3098,104.131 37.9764,106.298 29.5,108C 23.1754,108.5 16.8421,108.666 10.5,108.5C 8.23625,107.781 5.90291,107.448 3.5,107.5C 2.04125,107.567 0.707917,107.234 -0.5,106.5C -0.5,105.833 -0.5,105.167 -0.5,104.5C 3.71233,98.2116 6.379,91.2116 7.5,83.5C 8.28997,82.3915 8.78997,81.0581 9,79.5C 10.22,69.1935 11.0533,58.8602 11.5,48.5C 14.6229,46.4561 17.9562,44.7895 21.5,43.5 Z"/></g>
<g><path style="opacity:1" fill="#eaeae7" d="M 19.5,47.5 C 49.8333,47.5 80.1667,47.5 110.5,47.5C 110.537,53.535 111.037,59.535 112,65.5C 113.674,66.6765 115.174,68.0098 116.5,69.5C 117.429,68.3112 117.762,66.9778 117.5,65.5C 118.434,66.5676 118.768,67.901 118.5,69.5C 114.292,73.6849 109.292,76.6849 103.5,78.5C 104.749,76.8639 106.416,75.6972 108.5,75C 106.203,74.9822 103.869,75.1489 101.5,75.5C 101.541,79.2434 100.874,79.4101 99.5,76C 90.1667,75.3333 90.1667,74.6667 99.5,74C 98.6028,71.9129 97.9361,69.7463 97.5,67.5C 97.7618,64.7484 97.7618,61.7484 97.5,58.5C 92.8333,58.5 88.1667,58.5 83.5,58.5C 83.322,62.1224 83.9886,65.4557 85.5,68.5C 85.5,70.8333 85.5,73.1667 85.5,75.5C 89.8383,75.6219 90.1716,75.9553 86.5,76.5C 86.4427,81.6817 85.776,81.6817 84.5,76.5C 80.5,77.5 76.5,78.5 72.5,79.5C 71.5258,81.7427 71.1924,84.076 71.5,86.5C 72.552,86.3505 73.552,86.5172 74.5,87C 68.5146,89.2723 62.5146,91.439 56.5,93.5C 56.5,89.8333 56.5,86.1667 56.5,82.5C 52.1259,83.3436 47.7925,84.3436 43.5,85.5C 43.3946,81.4517 43.7279,77.4517 44.5,73.5C 39.482,73.6133 34.482,73.9466 29.5,74.5C 30.2949,70.2147 30.6282,65.8814 30.5,61.5C 26.5,61.5 22.5,61.5 18.5,61.5C 18.6495,62.552 18.4828,63.552 18,64.5C 17.8333,61.6667 17.6667,58.8333 17.5,56C 17.5191,52.7485 18.1858,49.9151 19.5,47.5 Z"/></g>
<g><path style="opacity:0.981" fill="#222421" d="M 11.5,48.5 C 11.0533,58.8602 10.22,69.1935 9,79.5C 8.78997,81.0581 8.28997,82.3915 7.5,83.5C 7.5,79.5 7.5,75.5 7.5,71.5C 7.5,70.8333 7.16667,70.5 6.5,70.5C 7.23411,69.2921 7.56745,67.9587 7.5,66.5C 7.5,63.1667 7.5,59.8333 7.5,56.5C 8.3543,54.965 8.3543,53.6316 7.5,52.5C 7.55688,51.391 7.89022,50.391 8.5,49.5C 9.60895,49.4431 10.609,49.1098 11.5,48.5 Z"/></g>
<g><path style="opacity:0.796" fill="#54cdc5" d="M 121.5,51.5 C 123.61,52.9501 124.943,54.9501 125.5,57.5C 124.883,57.3893 124.383,57.056 124,56.5C 123.853,61.4788 122.687,61.8121 120.5,57.5C 120.205,55.2646 120.539,53.2646 121.5,51.5 Z"/></g>
<g><path style="opacity:0.843" fill="#9df36c" d="M 7.5,47.5 C 7.83333,47.5 8.16667,47.5 8.5,47.5C 8.5,48.1667 8.5,48.8333 8.5,49.5C 7.89022,50.391 7.55688,51.391 7.5,52.5C 4.23791,53.8169 2.57125,56.3169 2.5,60C 3.09442,60.4643 3.76109,60.631 4.5,60.5C 4.60357,62.7028 5.27024,64.7028 6.5,66.5C 5.20222,65.8843 4.20222,65.8843 3.5,66.5C 2.16667,65.1667 0.833333,63.8333 -0.5,62.5C -0.5,60.1667 -0.5,57.8333 -0.5,55.5C 1.13868,51.8613 3.80534,49.1946 7.5,47.5 Z"/></g>
<g><path style="opacity:0.427" fill="#f0e115" d="M 7.5,52.5 C 8.3543,53.6316 8.3543,54.965 7.5,56.5C 5.73758,57.2623 4.73758,58.5956 4.5,60.5C 3.76109,60.631 3.09442,60.4643 2.5,60C 2.57125,56.3169 4.23791,53.8169 7.5,52.5 Z"/></g>
<g><path style="opacity:1" fill="#f9d4f7" d="M 97.5,67.5 C 93.4809,67.6458 89.4809,67.9791 85.5,68.5C 83.9886,65.4557 83.322,62.1224 83.5,58.5C 88.1667,58.5 92.8333,58.5 97.5,58.5C 97.7618,61.7484 97.7618,64.7484 97.5,67.5 Z"/></g>
<g><path style="opacity:1" fill="#c8fbb6" d="M 44.5,73.5 C 44.5,69.5 44.5,65.5 44.5,61.5C 48.8422,61.2605 53.1756,60.9272 57.5,60.5C 57.5,64.5 57.5,68.5 57.5,72.5C 53.1578,72.7395 48.8244,73.0728 44.5,73.5 Z"/></g>
<g><path style="opacity:0.914" fill="#a9f173" d="M 125.5,57.5 C 126.451,58.9187 126.784,60.5853 126.5,62.5C 124.716,63.5738 123.549,65.2404 123,67.5C 122.329,68.2524 121.496,68.5858 120.5,68.5C 120.833,67.1667 121.167,65.8333 121.5,64.5C 122.833,63.5 122.833,62.5 121.5,61.5C 120.766,60.2921 120.433,58.9587 120.5,57.5C 122.687,61.8121 123.853,61.4788 124,56.5C 124.383,57.056 124.883,57.3893 125.5,57.5 Z"/></g>
<g><path style="opacity:0.008" fill="#f5e318" d="M -0.5,62.5 C 0.833333,63.8333 2.16667,65.1667 3.5,66.5C 3.73758,68.4044 4.73758,69.7377 6.5,70.5C 7.16667,70.5 7.5,70.8333 7.5,71.5C 6.06953,71.5792 4.73619,71.2458 3.5,70.5C 2.1433,68.4346 0.809964,66.4346 -0.5,64.5C -0.5,63.8333 -0.5,63.1667 -0.5,62.5 Z"/></g>
<g><path style="opacity:0.131" fill="#f8f61f" d="M 126.5,62.5 C 127.269,66.7246 125.602,69.3913 121.5,70.5C 121.167,70.5 120.833,70.5 120.5,70.5C 120.5,69.8333 120.5,69.1667 120.5,68.5C 121.496,68.5858 122.329,68.2524 123,67.5C 123.549,65.2404 124.716,63.5738 126.5,62.5 Z"/></g>
<g><path style="opacity:0.933" fill="#49b494" d="M 6.5,66.5 C 6.83333,66.5 7.16667,66.5 7.5,66.5C 7.56745,67.9587 7.23411,69.2921 6.5,70.5C 4.73758,69.7377 3.73758,68.4044 3.5,66.5C 4.20222,65.8843 5.20222,65.8843 6.5,66.5 Z"/></g>
<g><path style="opacity:0.953" fill="#11100e" d="M 120.5,70.5 C 120.833,70.5 121.167,70.5 121.5,70.5C 121.5,72.8333 121.5,75.1667 121.5,77.5C 119.926,75.8984 119.259,73.8984 119.5,71.5C 119.5,70.8333 119.833,70.5 120.5,70.5 Z"/></g>
<g><path style="opacity:1" fill="#fdfcb7" d="M 44.5,73.5 C 43.7279,77.4517 43.3946,81.4517 43.5,85.5C 42.8333,85.5 42.5,85.8333 42.5,86.5C 37.8387,87.499 33.172,88.499 28.5,89.5C 28.1667,88.6667 27.8333,87.8333 27.5,87C 28.7301,82.9157 29.3967,78.7491 29.5,74.5C 34.482,73.9466 39.482,73.6133 44.5,73.5 Z"/></g>
<g><path style="opacity:1" fill="#e4e6e5" d="M 29.5,74.5 C 29.3967,78.7491 28.7301,82.9157 27.5,87C 27.8333,87.8333 28.1667,88.6667 28.5,89.5C 33.172,88.499 37.8387,87.499 42.5,86.5C 41.8782,90.9461 40.8782,95.2795 39.5,99.5C 31.502,102.285 23.1687,103.452 14.5,103C 17.4262,102.782 20.2595,102.282 23,101.5C 24.479,97.5826 25.6457,93.5826 26.5,89.5C 22.2325,89.203 18.0659,89.5363 14,90.5C 14.8543,83.8789 15.8543,77.2122 17,70.5C 17.49,71.7932 17.6567,73.1266 17.5,74.5C 21.5,74.5 25.5,74.5 29.5,74.5 Z"/></g>
<g><path style="opacity:0.979" fill="#faf9f5" d="M 119.5,71.5 C 119.259,73.8984 119.926,75.8984 121.5,77.5C 123.824,82.4648 125.824,87.4648 127.5,92.5C 127.5,92.8333 127.5,93.1667 127.5,93.5C 126.778,93.9175 126.278,94.5842 126,95.5C 125.536,94.9056 125.369,94.2389 125.5,93.5C 124.833,90.8333 123.167,89.1667 120.5,88.5C 119.167,88.1667 117.833,87.8333 116.5,87.5C 108.653,86.326 100.653,86.326 92.5,87.5C 101.629,82.4333 110.629,77.1 119.5,71.5 Z"/></g>
<g><path style="opacity:1" fill="#eef7ae" d="M 120.5,68.5 C 120.5,69.1667 120.5,69.8333 120.5,70.5C 119.833,70.5 119.5,70.8333 119.5,71.5C 110.629,77.1 101.629,82.4333 92.5,87.5C 88.0215,89.1231 83.3548,90.4565 78.5,91.5C 86.9561,87.4383 95.2894,83.105 103.5,78.5C 109.292,76.6849 114.292,73.6849 118.5,69.5C 119.167,69.1667 119.833,68.8333 120.5,68.5 Z"/></g>
<g><path style="opacity:1" fill="#b4fbfd" d="M 56.5,93.5 C 51.1295,96.2905 45.4628,98.2905 39.5,99.5C 40.8782,95.2795 41.8782,90.9461 42.5,86.5C 42.5,85.8333 42.8333,85.5 43.5,85.5C 47.7925,84.3436 52.1259,83.3436 56.5,82.5C 56.5,86.1667 56.5,89.8333 56.5,93.5 Z"/></g>
<g><path style="opacity:0.98" fill="#151310" d="M 116.5,87.5 C 117.833,87.8333 119.167,88.1667 120.5,88.5C 120.833,89.1667 121.167,89.8333 121.5,90.5C 121.5,96.1667 121.5,101.833 121.5,107.5C 120.055,105.429 119.055,103.096 118.5,100.5C 118.443,99.391 118.11,98.391 117.5,97.5C 117.5,96.8333 117.5,96.1667 117.5,95.5C 117.425,92.7938 117.092,90.1272 116.5,87.5 Z"/></g>
<g><path style="opacity:0.737" fill="#f3c868" d="M 120.5,88.5 C 123.167,89.1667 124.833,90.8333 125.5,93.5C 124.167,92.5 122.833,91.5 121.5,90.5C 121.167,89.8333 120.833,89.1667 120.5,88.5 Z"/></g>
<g><path style="opacity:1" fill="#e79312" d="M 116.5,87.5 C 117.092,90.1272 117.425,92.7938 117.5,95.5C 113.5,95.5 109.5,95.5 105.5,95.5C 103.804,95.3146 102.471,94.4813 101.5,93C 103.141,90.837 105.141,89.337 107.5,88.5C 110.43,87.701 113.43,87.3677 116.5,87.5 Z"/></g>
<g><path style="opacity:1" fill="#f3b216" d="M 107.5,88.5 C 105.141,89.337 103.141,90.837 101.5,93C 102.471,94.4813 103.804,95.3146 105.5,95.5C 102.456,97.0114 99.1224,97.678 95.5,97.5C 93.637,95.5076 91.3037,94.0076 88.5,93C 91.9423,92.8835 94.9423,91.7168 97.5,89.5C 100.768,88.513 104.102,88.1796 107.5,88.5 Z"/></g>
<g><path style="opacity:1" fill="#f0bc3c" d="M 71.5,94.5 C 74.8984,94.1796 78.2317,94.513 81.5,95.5C 82.2802,97.4554 83.7802,98.4554 86,98.5C 89.1429,97.8926 92.3095,97.5592 95.5,97.5C 99.1224,97.678 102.456,97.0114 105.5,95.5C 109.5,95.5 113.5,95.5 117.5,95.5C 117.5,96.1667 117.5,96.8333 117.5,97.5C 115.585,97.2155 113.919,97.5489 112.5,98.5C 105.325,98.6031 98.1584,98.9365 91,99.5C 87.7485,99.5191 84.9151,100.186 82.5,101.5C 76.021,102.491 69.3543,102.824 62.5,102.5C 63.3984,101.842 64.3984,101.176 65.5,100.5C 64.8333,100.167 64.1667,99.8333 63.5,99.5C 60.5804,100.586 57.5804,101.252 54.5,101.5C 59.8483,98.6004 65.5149,96.2671 71.5,94.5 Z"/></g>
<g><path style="opacity:1" fill="#fad121" d="M 116.5,87.5 C 113.43,87.3677 110.43,87.701 107.5,88.5C 104.102,88.1796 100.768,88.513 97.5,89.5C 94.9423,91.7168 91.9423,92.8835 88.5,93C 91.3037,94.0076 93.637,95.5076 95.5,97.5C 92.3095,97.5592 89.1429,97.8926 86,98.5C 83.7802,98.4554 82.2802,97.4554 81.5,95.5C 78.2317,94.513 74.8984,94.1796 71.5,94.5C 73.5707,93.0549 75.904,92.0549 78.5,91.5C 83.3548,90.4565 88.0215,89.1231 92.5,87.5C 100.653,86.326 108.653,86.326 116.5,87.5 Z"/></g>
<g><path style="opacity:1" fill="#f1cf83" d="M 112.5,98.5 C 107.711,100.67 102.544,102.337 97,103.5C 96.5172,102.552 96.3505,101.552 96.5,100.5C 91.8592,101.127 87.1925,101.46 82.5,101.5C 84.9151,100.186 87.7485,99.5191 91,99.5C 98.1584,98.9365 105.325,98.6031 112.5,98.5 Z"/></g>
<g><path style="opacity:1" fill="#efd5a6" d="M 117.5,97.5 C 118.11,98.391 118.443,99.391 118.5,100.5C 116.833,100.5 115.167,100.5 113.5,100.5C 113.5,101.833 113.5,103.167 113.5,104.5C 91.2572,107.135 68.9239,108.469 46.5,108.5C 49.2869,107.523 52.2869,107.19 55.5,107.5C 55.5,106.5 55.5,105.5 55.5,104.5C 58.1522,104.59 60.4855,103.924 62.5,102.5C 69.3543,102.824 76.021,102.491 82.5,101.5C 87.1925,101.46 91.8592,101.127 96.5,100.5C 96.3505,101.552 96.5172,102.552 97,103.5C 102.544,102.337 107.711,100.67 112.5,98.5C 113.919,97.5489 115.585,97.2155 117.5,97.5 Z"/></g>
<g><path style="opacity:1" fill="#c89e56" d="M 62.5,102.5 C 60.4855,103.924 58.1522,104.59 55.5,104.5C 55.5,105.5 55.5,106.5 55.5,107.5C 52.2869,107.19 49.2869,107.523 46.5,108.5C 34.3378,109.553 22.3378,109.553 10.5,108.5C 16.8421,108.666 23.1754,108.5 29.5,108C 37.9764,106.298 46.3098,104.131 54.5,101.5C 57.5804,101.252 60.5804,100.586 63.5,99.5C 64.1667,99.8333 64.8333,100.167 65.5,100.5C 64.3984,101.176 63.3984,101.842 62.5,102.5 Z"/></g>
<g><path style="opacity:1" fill="#ccb18a" d="M 3.5,107.5 C 5.90291,107.448 8.23625,107.781 10.5,108.5C 22.3378,109.553 34.3378,109.553 46.5,108.5C 37.0717,110.452 27.4051,111.452 17.5,111.5C 13.9829,110.38 10.3163,110.38 6.5,111.5C 5.46548,110.209 4.46548,108.876 3.5,107.5 Z"/></g>
<g><path style="opacity:1" fill="#f2e8d9" d="M 118.5,100.5 C 119.055,103.096 120.055,105.429 121.5,107.5C 121.5,107.833 121.5,108.167 121.5,108.5C 111.656,110.883 101.656,112.383 91.5,113C 70.5,113.667 49.5,113.667 28.5,113C 24.6437,112.823 20.977,112.323 17.5,111.5C 27.4051,111.452 37.0717,110.452 46.5,108.5C 68.9239,108.469 91.2572,107.135 113.5,104.5C 113.5,103.167 113.5,101.833 113.5,100.5C 115.167,100.5 116.833,100.5 118.5,100.5 Z"/></g>
<g><path style="opacity:1" fill="#f1e4b6" d="M 121.5,108.5 C 121.5,108.833 121.5,109.167 121.5,109.5C 120.1,110.1 119.1,111.1 118.5,112.5C 110.575,113.93 102.575,114.597 94.5,114.5C 70.5017,115.767 46.5017,115.767 22.5,114.5C 16.9313,114.624 11.598,113.957 6.5,112.5C 6.5,112.167 6.5,111.833 6.5,111.5C 10.3163,110.38 13.9829,110.38 17.5,111.5C 20.977,112.323 24.6437,112.823 28.5,113C 49.5,113.667 70.5,113.667 91.5,113C 101.656,112.383 111.656,110.883 121.5,108.5 Z"/></g>
<g><path style="opacity:1" fill="#bda680" d="M 118.5,112.5 C 118.5,113.833 118.5,115.167 118.5,116.5C 113.167,116.5 107.833,116.5 102.5,116.5C 98.1667,116.5 93.8333,116.5 89.5,116.5C 91.1667,115.833 92.8333,115.167 94.5,114.5C 102.575,114.597 110.575,113.93 118.5,112.5 Z"/></g>
<g><path style="opacity:0.113" fill="#0d0904" d="M 121.5,109.5 C 121.666,113.846 121.499,118.179 121,122.5C 118.595,123.274 116.095,123.774 113.5,124C 80.1667,124.667 46.8333,124.667 13.5,124C 5.5867,124.948 3.5867,122.114 7.5,115.5C 8.92167,115.709 10.255,116.209 11.5,117C 42.0028,117.831 72.3361,117.664 102.5,116.5C 107.833,116.5 113.167,116.5 118.5,116.5C 118.5,115.167 118.5,113.833 118.5,112.5C 119.1,111.1 120.1,110.1 121.5,109.5 Z"/></g>
<g><path style="opacity:1" fill="#b2976c" d="M 6.5,112.5 C 11.598,113.957 16.9313,114.624 22.5,114.5C 44.6397,116.271 66.9731,116.938 89.5,116.5C 93.8333,116.5 98.1667,116.5 102.5,116.5C 72.3361,117.664 42.0028,117.831 11.5,117C 10.255,116.209 8.92167,115.709 7.5,115.5C 4.78348,114.322 4.45015,113.322 6.5,112.5 Z"/></g>
<g><path style="opacity:1" fill="#dfbe5e" d="M 22.5,114.5 C 46.5017,115.767 70.5017,115.767 94.5,114.5C 92.8333,115.167 91.1667,115.833 89.5,116.5C 66.9731,116.938 44.6397,116.271 22.5,114.5 Z"/></g>
</svg>
