<?xml version="1.0" encoding="UTF-8"?>
<!DOCTYPE svg PUBLIC "-//W3C//DTD SVG 1.1//EN" "http://www.w3.org/Graphics/SVG/1.1/DTD/svg11.dtd">
<svg xmlns="http://www.w3.org/2000/svg" version="1.1" width="128px" height="128px" style="shape-rendering:geometricPrecision; text-rendering:geometricPrecision; image-rendering:optimizeQuality; fill-rule:evenodd; clip-rule:evenodd" xmlns:xlink="http://www.w3.org/1999/xlink">
<g><path style="opacity:0.983" fill="#5764f2" d="M 127.5,69.5 C 127.5,78.5 127.5,87.5 127.5,96.5C 117.692,103.404 107.025,108.738 95.5,112.5C 91.7845,109.95 89.1178,106.45 87.5,102C 87.6448,101.228 87.9781,100.561 88.5,100C 90.8333,99 93.1667,98 95.5,97C 96.7112,96.1072 96.7112,95.2739 95.5,94.5C 74.1667,103.833 52.8333,103.833 31.5,94.5C 30.6919,94.8076 30.0253,95.3076 29.5,96C 32.4167,97.5275 35.4167,98.8608 38.5,100C 39.0219,100.561 39.3552,101.228 39.5,102C 37.8822,106.45 35.2155,109.95 31.5,112.5C 19.9751,108.738 9.30846,103.404 -0.5,96.5C -0.5,87.5 -0.5,78.5 -0.5,69.5C 2.45215,53.4929 8.28548,38.4929 17,24.5C 19.6259,21.7692 22.7926,19.9358 26.5,19C 32.9939,16.2075 39.6606,15.0408 46.5,15.5C 47.1667,16.8333 47.8333,18.1667 48.5,19.5C 58.5,20.8333 68.5,20.8333 78.5,19.5C 79.0988,16.9356 80.5988,15.2689 83,14.5C 91.483,15.9953 99.6496,18.4953 107.5,22C 117.985,36.3076 124.652,52.1409 127.5,69.5 Z M 38.5,56.5 C 46.1627,55.0761 50.9961,58.0761 53,65.5C 53.435,75.7319 48.6016,80.5652 38.5,80C 32.6362,76.4337 30.4695,71.267 32,64.5C 33.3046,61.0386 35.4713,58.372 38.5,56.5 Z M 80.5,56.5 C 94.525,56.8715 98.6916,63.5382 93,76.5C 85.8918,82.4838 79.8918,81.4838 75,73.5C 72.927,66.5528 74.7603,60.8861 80.5,56.5 Z"/></g>
</svg>
