<?xml version="1.0" encoding="UTF-8"?>
<!DOCTYPE svg PUBLIC "-//W3C//DTD SVG 1.1//EN" "http://www.w3.org/Graphics/SVG/1.1/DTD/svg11.dtd">
<svg xmlns="http://www.w3.org/2000/svg" version="1.1" width="128px" height="128px" style="shape-rendering:geometricPrecision; text-rendering:geometricPrecision; image-rendering:optimizeQuality; fill-rule:evenodd; clip-rule:evenodd" xmlns:xlink="http://www.w3.org/1999/xlink">
<g><path style="opacity:0.925" fill="#007ee4" d="M 39.5,12.5 C 47.9114,17.7452 55.5781,23.9118 62.5,31C 51.2647,38.5373 39.7647,45.704 28,52.5C 20.0782,47.0837 12.5782,41.0837 5.5,34.5C 16.5818,26.7465 27.9151,19.4132 39.5,12.5 Z"/></g>
<g><path style="opacity:0.941" fill="#007de4" d="M 85.5,12.5 C 98.1475,18.8214 110.148,26.1547 121.5,34.5C 114.646,40.5217 107.646,46.355 100.5,52C 99.5,52.6667 98.5,52.6667 97.5,52C 86.1221,45.3177 75.1221,38.151 64.5,30.5C 71.5446,24.448 78.5446,18.448 85.5,12.5 Z"/></g>
<g><path style="opacity:0.92" fill="#007de4" d="M 57.5,78.5 C 56.8333,78.5 56.5,78.8333 56.5,79.5C 55.8333,79.5 55.5,79.8333 55.5,80.5C 53.5956,80.7376 52.2623,81.7376 51.5,83.5C 50.8333,83.5 50.5,83.8333 50.5,84.5C 49.8333,84.5 49.5,84.8333 49.5,85.5C 48.8333,85.5 48.5,85.8333 48.5,86.5C 46.9731,86.427 45.9731,87.0937 45.5,88.5C 44.8333,88.5 44.5,88.8333 44.5,89.5C 43.8333,89.5 43.5,89.8333 43.5,90.5C 42.8333,90.5 42.5,90.8333 42.5,91.5C 40.3453,91.628 38.3453,91.128 36.5,90C 27.3313,84.2479 17.998,78.7479 8.5,73.5C 7.16667,72.5 7.16667,71.5 8.5,70.5C 14.8333,65.1667 21.1667,59.8333 27.5,54.5C 38.6663,60.9154 49.6663,67.5821 60.5,74.5C 59.4756,75.8518 58.4756,77.1851 57.5,78.5 Z"/></g>
<g><path style="opacity:0.925" fill="#007de4" d="M 84.5,91.5 C 84.5,90.8333 84.1667,90.5 83.5,90.5C 83.5,89.8333 83.1667,89.5 82.5,89.5C 82.5,88.8333 82.1667,88.5 81.5,88.5C 81.0269,87.0937 80.0269,86.427 78.5,86.5C 78.5,85.8333 78.1667,85.5 77.5,85.5C 77.5,84.8333 77.1667,84.5 76.5,84.5C 76.5,83.8333 76.1667,83.5 75.5,83.5C 74.7377,81.7376 73.4044,80.7376 71.5,80.5C 71.5,79.8333 71.1667,79.5 70.5,79.5C 70.5,78.8333 70.1667,78.5 69.5,78.5C 68.5244,77.1851 67.5244,75.8518 66.5,74.5C 77.3337,67.5821 88.3337,60.9154 99.5,54.5C 105.688,59.8559 112.022,65.0225 118.5,70C 119.731,71.1827 119.731,72.3493 118.5,73.5C 109.002,78.7479 99.6687,84.2479 90.5,90C 88.6547,91.128 86.6547,91.628 84.5,91.5 Z"/></g>
<g><path style="opacity:0.897" fill="#007de4" d="M 42.5,91.5 C 43.1667,91.5 43.5,91.1667 43.5,90.5C 44.1667,90.5 44.5,90.1667 44.5,89.5C 45.1667,89.5 45.5,89.1667 45.5,88.5C 47.0269,88.573 48.0269,87.9063 48.5,86.5C 49.1667,86.5 49.5,86.1667 49.5,85.5C 50.1667,85.5 50.5,85.1667 50.5,84.5C 51.1667,84.5 51.5,84.1667 51.5,83.5C 53.4044,83.2624 54.7377,82.2624 55.5,80.5C 56.1667,80.5 56.5,80.1667 56.5,79.5C 57.1667,79.5 57.5,79.1667 57.5,78.5C 59.0443,78.2969 60.3777,77.6302 61.5,76.5C 62.8333,89.5 62.8333,102.5 61.5,115.5C 51,108.749 40.3333,102.249 29.5,96C 28.565,93.6194 28.2317,91.1194 28.5,88.5C 32.608,89.4691 36.4414,91.1358 40,93.5C 40.9947,92.9341 41.828,92.2674 42.5,91.5 Z"/></g>
<g><path style="opacity:0.908" fill="#007de4" d="M 69.5,78.5 C 70.1667,78.5 70.5,78.8333 70.5,79.5C 71.1667,79.5 71.5,79.8333 71.5,80.5C 72.2623,82.2624 73.5956,83.2624 75.5,83.5C 76.1667,83.5 76.5,83.8333 76.5,84.5C 77.1667,84.5 77.5,84.8333 77.5,85.5C 78.1667,85.5 78.5,85.8333 78.5,86.5C 78.9731,87.9063 79.9731,88.573 81.5,88.5C 82.1667,88.5 82.5,88.8333 82.5,89.5C 83.1667,89.5 83.5,89.8333 83.5,90.5C 84.1667,90.5 84.5,90.8333 84.5,91.5C 85.172,92.2674 86.0053,92.9341 87,93.5C 90.5586,91.1358 94.392,89.4691 98.5,88.5C 98.7683,91.1194 98.435,93.6194 97.5,96C 86.6667,102.249 76,108.749 65.5,115.5C 64.1667,102.5 64.1667,89.5 65.5,76.5C 66.6223,77.6302 67.9557,78.2969 69.5,78.5 Z"/></g>
</svg>
