<?xml version="1.0" encoding="UTF-8"?>
<!DOCTYPE svg PUBLIC "-//W3C//DTD SVG 1.1//EN" "http://www.w3.org/Graphics/SVG/1.1/DTD/svg11.dtd">
<svg xmlns="http://www.w3.org/2000/svg" version="1.1" width="128px" height="128px" style="shape-rendering:geometricPrecision; text-rendering:geometricPrecision; image-rendering:optimizeQuality; fill-rule:evenodd; clip-rule:evenodd" xmlns:xlink="http://www.w3.org/1999/xlink">
<g><path style="opacity:0.954" fill="#fbcf4b" d="M 46.5,15.5 C 58.1857,15.1678 69.8523,15.5011 81.5,16.5C 94.362,37.5612 106.695,58.8946 118.5,80.5C 105.989,80.8286 93.6554,80.4952 81.5,79.5C 75.5,69.1667 69.5,58.8333 63.5,48.5C 58.1092,37.3857 52.4425,26.3857 46.5,15.5 Z"/></g>
<g><path style="opacity:0.951" fill="#2eb471" d="M 46.5,15.5 C 52.4425,26.3857 58.1092,37.3857 63.5,48.5C 56.9301,58.6304 50.5967,68.9637 44.5,79.5C 37.6663,89.8285 31.3329,100.495 25.5,111.5C 19.0829,101.673 13.4163,91.3396 8.5,80.5C 20.4205,58.3154 33.0872,36.6487 46.5,15.5 Z"/></g>
<g><path style="opacity:0.957" fill="#3e82f6" d="M 44.5,79.5 C 56.8333,79.5 69.1667,79.5 81.5,79.5C 93.6554,80.4952 105.989,80.8286 118.5,80.5C 112.845,90.4727 107.179,100.473 101.5,110.5C 76.1754,111.5 50.8421,111.833 25.5,111.5C 31.3329,100.495 37.6663,89.8285 44.5,79.5 Z"/></g>
</svg>
