<?xml version="1.0" encoding="UTF-8"?>
<!DOCTYPE svg PUBLIC "-//W3C//DTD SVG 1.1//EN" "http://www.w3.org/Graphics/SVG/1.1/DTD/svg11.dtd">
<svg xmlns="http://www.w3.org/2000/svg" version="1.1" width="128px" height="128px" style="shape-rendering:geometricPrecision; text-rendering:geometricPrecision; image-rendering:optimizeQuality; fill-rule:evenodd; clip-rule:evenodd" xmlns:xlink="http://www.w3.org/1999/xlink">
<g><path style="opacity:0.965" fill="#d31b00" d="M 64.5,127.5 C 58.8333,127.5 53.1667,127.5 47.5,127.5C 27.2338,122.74 13.7338,110.407 7,90.5C 1.667,62.3314 11.8337,42.1647 37.5,30C 63.6461,22.0478 84.4795,29.2145 100,51.5C 111.882,77.0527 107.382,99.2193 86.5,118C 79.6642,122.591 72.3309,125.758 64.5,127.5 Z"/></g>
<g><path style="opacity:1" fill="#fefbfa" d="M 73.5,57.5 C 77.1667,57.5 80.8333,57.5 84.5,57.5C 84.5,70.8333 84.5,84.1667 84.5,97.5C 80.8333,97.5 77.1667,97.5 73.5,97.5C 73.6664,89.8261 73.4997,82.1594 73,74.5C 68.5,79 64,83.5 59.5,88C 57.1667,88.6667 54.8333,88.6667 52.5,88C 48,83.5 43.5,79 39,74.5C 38.5003,82.1594 38.3336,89.8261 38.5,97.5C 34.5,97.5 30.5,97.5 26.5,97.5C 26.5,83.8333 26.5,70.1667 26.5,56.5C 30.5138,56.3345 34.5138,56.5012 38.5,57C 44.3333,62.8333 50.1667,68.6667 56,74.5C 61.7019,68.6304 67.5353,62.9638 73.5,57.5 Z"/></g>
<g><path style="opacity:1" fill="#f3c5bd" d="M 73.5,57.5 C 77.2984,56.5166 81.2984,56.1832 85.5,56.5C 85.829,70.3435 85.4957,84.0102 84.5,97.5C 84.5,84.1667 84.5,70.8333 84.5,57.5C 80.8333,57.5 77.1667,57.5 73.5,57.5 Z"/></g>
</svg>
