<?xml version="1.0" encoding="UTF-8"?>
<!DOCTYPE svg PUBLIC "-//W3C//DTD SVG 1.1//EN" "http://www.w3.org/Graphics/SVG/1.1/DTD/svg11.dtd">
<svg xmlns="http://www.w3.org/2000/svg" version="1.1" width="128px" height="128px" style="shape-rendering:geometricPrecision; text-rendering:geometricPrecision; image-rendering:optimizeQuality; fill-rule:evenodd; clip-rule:evenodd" xmlns:xlink="http://www.w3.org/1999/xlink">
<g><path style="opacity:0.89" fill="#69afdc" d="M 70.5,44.5 C 64.7969,44.3748 59.1302,44.7081 53.5,45.5C 56.5256,43.9814 59.8589,43.3148 63.5,43.5C 66.0254,43.5034 68.3587,43.8367 70.5,44.5 Z"/></g>
<g><path style="opacity:1" fill="#2789cc" d="M 70.5,44.5 C 74.2725,44.8838 77.2725,46.5505 79.5,49.5C 80.1667,50.8333 81.1667,51.8333 82.5,52.5C 84.6243,54.0592 86.291,56.0592 87.5,58.5C 89.5916,56.3951 91.9249,54.7284 94.5,53.5C 98.1352,52.8857 101.802,52.5524 105.5,52.5C 109.565,52.8973 112.565,54.8973 114.5,58.5C 114.427,60.0269 115.094,61.0269 116.5,61.5C 116.5,65.8333 116.5,70.1667 116.5,74.5C 113.934,81.3004 108.934,84.967 101.5,85.5C 98.5379,84.9912 95.8712,83.9912 93.5,82.5C 93.0269,81.0937 92.0269,80.427 90.5,80.5C 89.5,80.1667 88.8333,79.5 88.5,78.5C 87.968,75.5404 87.3013,75.2071 86.5,77.5C 82.0357,88.581 73.7023,93.9143 61.5,93.5C 59.4855,92.0762 57.1522,91.4095 54.5,91.5C 52.847,91.3404 51.5137,90.6737 50.5,89.5C 49.7377,87.7376 48.4044,86.7376 46.5,86.5C 43.2633,84.3696 41.2633,81.3696 40.5,77.5C 40.631,76.7611 40.4643,76.0944 40,75.5C 38.5187,76.4709 37.6854,77.8042 37.5,79.5C 34.3749,83.0627 30.3749,85.0627 25.5,85.5C 22.5379,84.9912 19.8712,83.9912 17.5,82.5C 17.0269,81.0937 16.0269,80.427 14.5,80.5C 11.5505,78.2725 9.88383,75.2725 9.5,71.5C 9.93487,69.7033 9.93487,67.7033 9.5,65.5C 10.2364,59.7683 13.2364,55.7683 18.5,53.5C 22.1352,52.8857 25.8019,52.5524 29.5,52.5C 33.8413,53.4306 37.3413,55.7639 40,59.5C 40.2321,58.2625 40.7321,57.2625 41.5,56.5C 42.9063,56.0269 43.573,55.0269 43.5,53.5C 45.9626,49.6998 49.296,47.0332 53.5,45.5C 59.1302,44.7081 64.7969,44.3748 70.5,44.5 Z M 68.5,54.5 C 69.391,55.1098 70.391,55.4431 71.5,55.5C 72.1667,56.8333 73.1667,57.8333 74.5,58.5C 78.2477,64.6805 78.4144,71.0138 75,77.5C 67.3333,84.1667 59.6667,84.1667 52,77.5C 47.3226,68.1535 49.1559,60.4868 57.5,54.5C 61.1834,53.3252 64.85,53.3252 68.5,54.5 Z M 31.5,70.5 C 29.8089,71.8637 28.1423,73.197 26.5,74.5C 19.1168,72.7426 17.7835,68.9092 22.5,63C 28.6366,61.7351 31.6366,64.2351 31.5,70.5 Z M 103.5,62.5 C 107.274,64.919 108.274,68.2523 106.5,72.5C 104.847,72.6596 103.514,73.3263 102.5,74.5C 95.6888,73.2095 94.0221,69.5428 97.5,63.5C 99.4352,62.8505 101.435,62.5172 103.5,62.5 Z"/></g>
<g><path style="opacity:0.004" fill="#a9d3ec" d="M 79.5,49.5 C 81.5,49.5 82.5,50.5 82.5,52.5C 81.1667,51.8333 80.1667,50.8333 79.5,49.5 Z"/></g>
<g><path style="opacity:0.145" fill="#85bde3" d="M 29.5,52.5 C 25.8019,52.5524 22.1352,52.8857 18.5,53.5C 22.0437,51.4309 25.7104,51.0976 29.5,52.5 Z"/></g>
<g><path style="opacity:0.145" fill="#84bee3" d="M 105.5,52.5 C 101.802,52.5524 98.1352,52.8857 94.5,53.5C 98.0437,51.4309 101.71,51.0976 105.5,52.5 Z"/></g>
<g><path style="opacity:0.667" fill="#6bb0dd" d="M 68.5,54.5 C 64.85,53.3252 61.1834,53.3252 57.5,54.5C 61.1986,51.9348 64.8653,51.9348 68.5,54.5 Z"/></g>
<g><path style="opacity:0.216" fill="#8ec5e6" d="M 43.5,53.5 C 43.573,55.0269 42.9063,56.0269 41.5,56.5C 41.427,54.9731 42.0937,53.9731 43.5,53.5 Z"/></g>
<g><path style="opacity:0.843" fill="#7fb8e0" d="M 71.5,55.5 C 73.5,55.5 74.5,56.5 74.5,58.5C 73.1667,57.8333 72.1667,56.8333 71.5,55.5 Z"/></g>
<g><path style="opacity:0.192" fill="#89c3e5" d="M 114.5,58.5 C 115.906,58.9731 116.573,59.9731 116.5,61.5C 115.094,61.0269 114.427,60.0269 114.5,58.5 Z"/></g>
<g><path style="opacity:0.2" fill="#9ccde9" d="M 103.5,62.5 C 101.435,62.5172 99.4352,62.8505 97.5,63.5C 98.1342,62.0532 99.3009,61.3866 101,61.5C 102.07,61.528 102.903,61.8614 103.5,62.5 Z"/></g>
<g><path style="opacity:0.955" fill="#56a4d7" d="M 116.5,61.5 C 119.167,65.8333 119.167,70.1667 116.5,74.5C 116.5,70.1667 116.5,65.8333 116.5,61.5 Z"/></g>
<g><path style="opacity:0.09" fill="#7ab8e0" d="M 9.5,65.5 C 9.93487,67.7033 9.93487,69.7033 9.5,71.5C 8.16667,69.5 8.16667,67.5 9.5,65.5 Z"/></g>
<g><path style="opacity:0.431" fill="#94c6e6" d="M 31.5,70.5 C 31.0334,73.2974 29.3667,74.6308 26.5,74.5C 28.1423,73.197 29.8089,71.8637 31.5,70.5 Z"/></g>
<g><path style="opacity:0.086" fill="#a8d3ec" d="M 106.5,72.5 C 105.713,74.1042 104.38,74.7709 102.5,74.5C 103.514,73.3263 104.847,72.6596 106.5,72.5 Z"/></g>
<g><path style="opacity:0.067" fill="#99cbe8" d="M 88.5,78.5 C 87.8333,78.1667 87.1667,77.8333 86.5,77.5C 87.3013,75.2071 87.968,75.5404 88.5,78.5 Z"/></g>
<g><path style="opacity:0.004" fill="#94c8e7" d="M 40.5,77.5 C 39.5,78.1667 38.5,78.8333 37.5,79.5C 37.6854,77.8042 38.5187,76.4709 40,75.5C 40.4643,76.0944 40.631,76.7611 40.5,77.5 Z"/></g>
<g><path style="opacity:0.392" fill="#8ac3e5" d="M 14.5,80.5 C 16.0269,80.427 17.0269,81.0937 17.5,82.5C 15.9731,82.573 14.9731,81.9063 14.5,80.5 Z"/></g>
<g><path style="opacity:0.31" fill="#9acbe8" d="M 90.5,80.5 C 92.0269,80.427 93.0269,81.0937 93.5,82.5C 91.9731,82.573 90.9731,81.9063 90.5,80.5 Z"/></g>
<g><path style="opacity:0.8" fill="#84bde2" d="M 46.5,86.5 C 48.4044,86.7376 49.7377,87.7376 50.5,89.5C 48.5956,89.2624 47.2623,88.2624 46.5,86.5 Z"/></g>
<g><path style="opacity:0.227" fill="#8ac2e4" d="M 54.5,91.5 C 57.1522,91.4095 59.4855,92.0762 61.5,93.5C 58.8478,93.5905 56.5145,92.9238 54.5,91.5 Z"/></g>
</svg>
