<?xml version="1.0" encoding="UTF-8"?>
<!DOCTYPE svg PUBLIC "-//W3C//DTD SVG 1.1//EN" "http://www.w3.org/Graphics/SVG/1.1/DTD/svg11.dtd">
<svg xmlns="http://www.w3.org/2000/svg" version="1.1" width="128px" height="128px" style="shape-rendering:geometricPrecision; text-rendering:geometricPrecision; image-rendering:optimizeQuality; fill-rule:evenodd; clip-rule:evenodd" xmlns:xlink="http://www.w3.org/1999/xlink">
<g><path style="opacity:0.863" fill="#fad753" d="M 59.5,30.5 C 49.3468,31.4942 39.0135,31.8276 28.5,31.5C 28.8588,29.629 29.8588,28.129 31.5,27C 41.9153,20.4561 51.2486,21.6227 59.5,30.5 Z"/></g>
<g><path style="opacity:0.958" fill="#fad550" d="M 59.5,30.5 C 60.3382,30.8417 60.6716,31.5084 60.5,32.5C 49.5,33.8333 38.5,33.8333 27.5,32.5C 27.5,31.8333 27.8333,31.5 28.5,31.5C 39.0135,31.8276 49.3468,31.4942 59.5,30.5 Z"/></g>
<g><path style="opacity:0.951" fill="#fad14d" d="M 27.5,32.5 C 38.5,33.8333 49.5,33.8333 60.5,32.5C 62.2671,34.7916 63.2671,37.4582 63.5,40.5C 50.5,40.5 37.5,40.5 24.5,40.5C 24.9028,37.5145 25.9028,34.8478 27.5,32.5 Z"/></g>
<g><path style="opacity:0.764" fill="#fbcf49" d="M 93.5,41.5 C 86.1667,42.8333 78.8333,42.8333 71.5,41.5C 78.8333,38.8333 86.1667,38.8333 93.5,41.5 Z"/></g>
<g><path style="opacity:0.96" fill="#fbcf49" d="M 24.5,40.5 C 37.5,40.5 50.5,40.5 63.5,40.5C 63.6716,41.4916 63.3382,42.1583 62.5,42.5C 49.8333,42.5 37.1667,42.5 24.5,42.5C 24.5,41.8333 24.5,41.1667 24.5,40.5 Z"/></g>
<g><path style="opacity:0.926" fill="#fbcc46" d="M 24.5,42.5 C 37.1667,42.5 49.8333,42.5 62.5,42.5C 61.4884,43.8717 60.4884,45.205 59.5,46.5C 43.1667,46.5 26.8333,46.5 10.5,46.5C 14.1701,41.7821 18.8368,40.4488 24.5,42.5 Z"/></g>
<g><path style="opacity:0.91" fill="#fbcc46" d="M 71.5,41.5 C 78.8333,42.8333 86.1667,42.8333 93.5,41.5C 95.7952,42.4746 97.7952,43.8079 99.5,45.5C 88.012,46.4949 76.3453,46.8283 64.5,46.5C 66.2666,44.1099 68.5999,42.4432 71.5,41.5 Z"/></g>
<g><path style="opacity:0.941" fill="#fbc942" d="M 99.5,45.5 C 101.587,46.5846 102.92,48.2512 103.5,50.5C 89.1667,50.5 74.8333,50.5 60.5,50.5C 61.5,48.8333 62.8333,47.5 64.5,46.5C 76.3453,46.8283 88.012,46.4949 99.5,45.5 Z"/></g>
<g><path style="opacity:0.916" fill="#fbc942" d="M 10.5,46.5 C 26.8333,46.5 43.1667,46.5 59.5,46.5C 58.4884,47.8717 57.4884,49.205 56.5,50.5C 54.5853,50.2155 52.9187,50.5489 51.5,51.5C 46.1667,50.1667 40.8333,50.1667 35.5,51.5C 26.3483,50.5064 17.015,50.1731 7.5,50.5C 8.02561,48.7697 9.02561,47.4363 10.5,46.5 Z"/></g>
<g><path style="opacity:0.917" fill="#fcc73f" d="M 7.5,51.5 C 7.5,51.1667 7.5,50.8333 7.5,50.5C 17.015,50.1731 26.3483,50.5064 35.5,51.5C 35.1583,52.3382 34.4916,52.6716 33.5,52.5C 25.0161,51.507 16.3494,51.1736 7.5,51.5 Z"/></g>
<g><path style="opacity:0.616" fill="#fcc63f" d="M 56.5,50.5 C 55.539,54.143 53.8724,54.4763 51.5,51.5C 52.9187,50.5489 54.5853,50.2155 56.5,50.5 Z"/></g>
<g><path style="opacity:0.921" fill="#fcc43b" d="M 7.5,51.5 C 16.3494,51.1736 25.0161,51.507 33.5,52.5C 31.5248,54.137 29.5248,55.8036 27.5,57.5C 18.5,57.5 9.5,57.5 0.5,57.5C 2.03614,54.9078 4.36947,53.9078 7.5,54.5C 7.5,53.5 7.5,52.5 7.5,51.5 Z"/></g>
<g><path style="opacity:0.963" fill="#fcc43b" d="M 60.5,50.5 C 74.8333,50.5 89.1667,50.5 103.5,50.5C 105.588,52.3356 106.921,54.6689 107.5,57.5C 90.8333,57.5 74.1667,57.5 57.5,57.5C 57.9255,54.8808 58.9255,52.5475 60.5,50.5 Z"/></g>
<g><path style="opacity:0.722" fill="#fcc239" d="M 52.5,57.5 C 45.8333,57.5 39.1667,57.5 32.5,57.5C 35.2926,55.0795 38.6259,54.0795 42.5,54.5C 44.5,54.6667 46.5,54.8333 48.5,55C 50.3197,55.2004 51.653,56.0337 52.5,57.5 Z"/></g>
<g><path style="opacity:0.894" fill="#fcbf35" d="M 0.5,57.5 C 9.5,57.5 18.5,57.5 27.5,57.5C 26.3862,58.8853 25.3862,60.3853 24.5,62C 17.1667,62.6667 9.83333,62.6667 2.5,62C 0.963167,60.8904 0.2965,59.3904 0.5,57.5 Z"/></g>
<g><path style="opacity:0.965" fill="#fcbf34" d="M 32.5,57.5 C 39.1667,57.5 45.8333,57.5 52.5,57.5C 54.0174,57.5106 55.1841,58.1772 56,59.5C 56.2784,58.5842 56.7784,57.9175 57.5,57.5C 74.1667,57.5 90.8333,57.5 107.5,57.5C 108.15,59.4352 108.483,61.4352 108.5,63.5C 81.5,63.5 54.5,63.5 27.5,63.5C 28.4194,60.9108 30.086,58.9108 32.5,57.5 Z"/></g>
<g><path style="opacity:0.969" fill="#fdba2e" d="M 27.5,63.5 C 54.5,63.5 81.5,63.5 108.5,63.5C 108.5,65.1667 108.5,66.8333 108.5,68.5C 99.6506,68.1736 90.9839,68.507 82.5,69.5C 80.1667,69.5 77.8333,69.5 75.5,69.5C 59.0084,68.5035 42.3417,68.1702 25.5,68.5C 25.4021,66.4471 26.0687,64.7804 27.5,63.5 Z"/></g>
<g><path style="opacity:0.951" fill="#fdb72a" d="M 25.5,68.5 C 42.3417,68.1702 59.0084,68.5035 75.5,69.5C 73.5786,70.3627 71.5786,71.0293 69.5,71.5C 54.5,71.5 39.5,71.5 24.5,71.5C 24.2627,70.209 24.596,69.209 25.5,68.5 Z"/></g>
<g><path style="opacity:0.9" fill="#fdb72a" d="M 82.5,69.5 C 90.9839,68.507 99.6506,68.1736 108.5,68.5C 108.737,69.791 108.404,70.791 107.5,71.5C 101.167,71.5 94.8333,71.5 88.5,71.5C 86.5,70.8333 84.5,70.1667 82.5,69.5 Z"/></g>
<g><path style="opacity:0.957" fill="#fdb427" d="M 24.5,71.5 C 39.5,71.5 54.5,71.5 69.5,71.5C 68.8333,72.8333 67.8333,73.8333 66.5,74.5C 52.5,74.5 38.5,74.5 24.5,74.5C 24.5,73.5 24.5,72.5 24.5,71.5 Z"/></g>
<g><path style="opacity:0.819" fill="#fdb326" d="M 88.5,71.5 C 94.8333,71.5 101.167,71.5 107.5,71.5C 107.369,72.2389 107.536,72.9056 108,73.5C 111.048,71.1963 114.215,71.1963 117.5,73.5C 109.016,74.493 100.349,74.8264 91.5,74.5C 90.1667,73.8333 89.1667,72.8333 88.5,71.5 Z"/></g>
<g><path style="opacity:0.893" fill="#fdb022" d="M 117.5,73.5 C 120.522,74.5222 122.522,76.5222 123.5,79.5C 113.833,79.5 104.167,79.5 94.5,79.5C 93.7515,77.6675 92.7515,76.0009 91.5,74.5C 100.349,74.8264 109.016,74.493 117.5,73.5 Z"/></g>
<g><path style="opacity:0.942" fill="#fdb022" d="M 24.5,74.5 C 38.5,74.5 52.5,74.5 66.5,74.5C 64.8333,76.8333 62.8333,78.8333 60.5,80.5C 49.012,79.5051 37.3453,79.1717 25.5,79.5C 25.3713,77.7839 25.038,76.1172 24.5,74.5 Z"/></g>
<g><path style="opacity:0.339" fill="#feaf20" d="M 85.5,80.5 C 83.7354,79.5386 81.7354,79.2053 79.5,79.5C 82.413,77.5195 85.413,77.3528 88.5,79C 87.4734,79.5133 86.4734,80.0133 85.5,80.5 Z"/></g>
<g><path style="opacity:0.934" fill="#feab1b" d="M 25.5,79.5 C 37.3453,79.1717 49.012,79.5051 60.5,80.5C 58.1667,83.5 55.5,86.1667 52.5,88.5C 40.6783,87.5049 28.6783,87.1716 16.5,87.5C 18.2329,83.4351 21.2329,80.7684 25.5,79.5 Z"/></g>
<g><path style="opacity:0.797" fill="#feab1b" d="M 79.5,79.5 C 81.7354,79.2053 83.7354,79.5386 85.5,80.5C 83.058,82.1209 81.7247,84.4542 81.5,87.5C 78.5,87.5 75.5,87.5 72.5,87.5C 73.4499,83.5865 75.7833,80.9198 79.5,79.5 Z"/></g>
<g><path style="opacity:0.954" fill="#feab1b" d="M 94.5,79.5 C 104.167,79.5 113.833,79.5 123.5,79.5C 125.267,81.7916 126.267,84.4582 126.5,87.5C 116.167,87.5 105.833,87.5 95.5,87.5C 96.181,84.8313 95.8477,82.1647 94.5,79.5 Z"/></g>
<g><path style="opacity:0.945" fill="#fea615" d="M 16.5,87.5 C 28.6783,87.1716 40.6783,87.5049 52.5,88.5C 50.8333,90.8333 48.8333,92.8333 46.5,94.5C 36.5,94.5 26.5,94.5 16.5,94.5C 15.3139,92.2078 15.3139,89.8744 16.5,87.5 Z"/></g>
<g><path style="opacity:0.921" fill="#fea615" d="M 72.5,87.5 C 75.5,87.5 78.5,87.5 81.5,87.5C 83.8669,92.3542 87.5336,93.8542 92.5,92C 94.1412,90.871 95.1412,89.371 95.5,87.5C 105.833,87.5 116.167,87.5 126.5,87.5C 126.279,90.0673 125.612,92.4006 124.5,94.5C 107.167,94.5 89.8333,94.5 72.5,94.5C 72.5,92.1667 72.5,89.8333 72.5,87.5 Z"/></g>
<g><path style="opacity:0.92" fill="#ffa311" d="M 16.5,94.5 C 26.5,94.5 36.5,94.5 46.5,94.5C 45.5,96.1667 44.1667,97.5 42.5,98.5C 34.3501,97.5073 26.0168,97.1739 17.5,97.5C 16.8902,96.609 16.5569,95.609 16.5,94.5 Z"/></g>
<g><path style="opacity:0.966" fill="#ffa311" d="M 72.5,94.5 C 89.8333,94.5 107.167,94.5 124.5,94.5C 124.573,96.0269 123.906,97.0269 122.5,97.5C 106.5,97.5 90.5,97.5 74.5,97.5C 73.5987,96.7095 72.9321,95.7095 72.5,94.5 Z"/></g>
<g><path style="opacity:0.837" fill="#ffa10e" d="M 17.5,97.5 C 26.0168,97.1739 34.3501,97.5073 42.5,98.5C 33.8831,106.603 25.5498,106.27 17.5,97.5 Z"/></g>
<g><path style="opacity:0.843" fill="#ffa10e" d="M 74.5,97.5 C 90.5,97.5 106.5,97.5 122.5,97.5C 120.996,99.8356 118.996,101.669 116.5,103C 104.158,104.977 91.825,104.977 79.5,103C 76.921,101.924 75.2543,100.091 74.5,97.5 Z"/></g>
</svg>
