<?xml version="1.0" encoding="UTF-8"?>
<!DOCTYPE svg PUBLIC "-//W3C//DTD SVG 1.1//EN" "http://www.w3.org/Graphics/SVG/1.1/DTD/svg11.dtd">
<svg xmlns="http://www.w3.org/2000/svg" version="1.1" width="128px" height="128px" style="shape-rendering:geometricPrecision; text-rendering:geometricPrecision; image-rendering:optimizeQuality; fill-rule:evenodd; clip-rule:evenodd" xmlns:xlink="http://www.w3.org/1999/xlink">
<g><path style="opacity:0.909" fill="#35c5f0" d="M 42.5,-0.5 C 45.5,-0.5 48.5,-0.5 51.5,-0.5C 55.4788,1.31481 58.3122,4.31481 60,8.5C 60.4995,14.8246 60.6662,21.1579 60.5,27.5C 54.8236,27.6661 49.1569,27.4994 43.5,27C 34.0454,23.5905 30.8788,17.0905 34,7.5C 36.0982,3.89715 38.9315,1.23049 42.5,-0.5 Z"/></g>
<g><path style="opacity:0.957" fill="#2db67c" d="M 75.5,-0.5 C 78.5,-0.5 81.5,-0.5 84.5,-0.5C 89.2067,1.71515 92.3734,5.38182 94,10.5C 94.6667,23.5 94.6667,36.5 94,49.5C 89.656,60.3953 82.156,63.2286 71.5,58C 69.3834,56.2691 67.8834,54.1024 67,51.5C 66.3333,37.1667 66.3333,22.8333 67,8.5C 68.6878,4.31481 71.5212,1.31481 75.5,-0.5 Z"/></g>
<g><path style="opacity:0.935" fill="#35c5f0" d="M -0.5,51.5 C -0.5,48.5 -0.5,45.5 -0.5,42.5C 1.71515,37.7933 5.38182,34.6266 10.5,33C 23.5,32.3333 36.5,32.3333 49.5,33C 60.3953,37.344 63.2286,44.844 58,55.5C 56.2691,57.6166 54.1024,59.1166 51.5,60C 37.1667,60.6667 22.8333,60.6667 8.5,60C 4.31481,58.3122 1.31481,55.4788 -0.5,51.5 Z"/></g>
<g><path style="opacity:0.953" fill="#2db67c" d="M 127.5,42.5 C 127.5,45.5 127.5,48.5 127.5,51.5C 125.685,55.4788 122.685,58.3122 118.5,60C 112.175,60.4995 105.842,60.6662 99.5,60.5C 99.3339,54.8236 99.5006,49.1569 100,43.5C 103.409,34.0454 109.909,30.8788 119.5,34C 123.103,36.0982 125.77,38.9315 127.5,42.5 Z"/></g>
<g><path style="opacity:0.928" fill="#e01d59" d="M -0.5,84.5 C -0.5,81.5 -0.5,78.5 -0.5,75.5C 1.31481,71.5212 4.31481,68.6878 8.5,67C 14.8246,66.5005 21.1579,66.3338 27.5,66.5C 27.6661,72.1764 27.4994,77.8431 27,83.5C 23.5905,92.9546 17.0905,96.1212 7.5,93C 3.89715,90.9018 1.23049,88.0685 -0.5,84.5 Z"/></g>
<g><path style="opacity:0.943" fill="#e01d59" d="M 51.5,127.5 C 48.5,127.5 45.5,127.5 42.5,127.5C 37.7933,125.285 34.6266,121.618 33,116.5C 32.3333,103.5 32.3333,90.5 33,77.5C 37.344,66.6047 44.844,63.7714 55.5,69C 57.6166,70.7309 59.1166,72.8976 60,75.5C 60.6667,89.8333 60.6667,104.167 60,118.5C 58.3122,122.685 55.4788,125.685 51.5,127.5 Z"/></g>
<g><path style="opacity:0.935" fill="#ecb22d" d="M 127.5,75.5 C 127.5,78.5 127.5,81.5 127.5,84.5C 125.285,89.2067 121.618,92.3734 116.5,94C 103.5,94.6667 90.5,94.6667 77.5,94C 66.6047,89.656 63.7714,82.156 69,71.5C 70.7309,69.3834 72.8976,67.8834 75.5,67C 89.8333,66.3333 104.167,66.3333 118.5,67C 122.685,68.6878 125.685,71.5212 127.5,75.5 Z"/></g>
<g><path style="opacity:0.908" fill="#ecb22d" d="M 84.5,127.5 C 81.5,127.5 78.5,127.5 75.5,127.5C 71.5212,125.685 68.6878,122.685 67,118.5C 66.5005,112.175 66.3338,105.842 66.5,99.5C 72.1764,99.3339 77.8431,99.5006 83.5,100C 92.9546,103.409 96.1212,109.909 93,119.5C 90.9018,123.103 88.0685,125.77 84.5,127.5 Z"/></g>
</svg>
