<?xml version="1.0" encoding="UTF-8"?>
<!DOCTYPE svg PUBLIC "-//W3C//DTD SVG 1.1//EN" "http://www.w3.org/Graphics/SVG/1.1/DTD/svg11.dtd">
<svg xmlns="http://www.w3.org/2000/svg" version="1.1" width="128px" height="128px" style="shape-rendering:geometricPrecision; text-rendering:geometricPrecision; image-rendering:optimizeQuality; fill-rule:evenodd; clip-rule:evenodd" xmlns:xlink="http://www.w3.org/1999/xlink">
<g><path style="opacity:0.794" fill="#04add9" d="M 54.5,10.5 C 88.8254,8.39738 109.659,24.064 117,57.5C 117.796,89.4056 102.629,108.906 71.5,116C 37.2878,117.82 16.7878,101.987 10,68.5C 9.69152,37.4159 24.5249,18.0826 54.5,10.5 Z M 58.5,18.5 C 88.5112,18.8509 105.178,33.8509 108.5,63.5C 105.899,90.768 90.8987,105.768 63.5,108.5C 36.1113,105.778 21.1113,90.778 18.5,63.5C 20.5757,38.4275 33.909,23.4275 58.5,18.5 Z"/></g>
<g><path style="opacity:0.875" fill="#04add9" d="M 33.5,39.5 C 53.1695,39.3334 72.8362,39.5 92.5,40C 93.0219,40.5613 93.3552,41.228 93.5,42C 84.0281,52.639 74.0281,62.8056 63.5,72.5C 53.2129,63.7147 43.3796,54.3814 34,44.5C 33.5065,42.8659 33.3398,41.1992 33.5,39.5 Z"/></g>
<g><path style="opacity:0.89" fill="#04add9" d="M 30.5,43.5 C 41.4793,54.1453 52.4793,64.812 63.5,75.5C 74.1134,65.2216 84.7801,54.8883 95.5,44.5C 96.8333,58.8333 96.8333,73.1667 95.5,87.5C 74.1667,88.8333 52.8333,88.8333 31.5,87.5C 30.5007,72.8485 30.1674,58.1818 30.5,43.5 Z"/></g>
</svg>
