<?xml version="1.0" encoding="UTF-8"?>
<!DOCTYPE svg PUBLIC "-//W3C//DTD SVG 1.1//EN" "http://www.w3.org/Graphics/SVG/1.1/DTD/svg11.dtd">
<svg xmlns="http://www.w3.org/2000/svg" version="1.1" width="128px" height="128px" style="shape-rendering:geometricPrecision; text-rendering:geometricPrecision; image-rendering:optimizeQuality; fill-rule:evenodd; clip-rule:evenodd" xmlns:xlink="http://www.w3.org/1999/xlink">
<g><path style="opacity:0.954" fill="#e44433" d="M 27.5,78.5 C 32.1498,80.8249 36.8165,83.1582 41.5,85.5C 52.3226,80.2583 62.6559,74.2583 72.5,67.5C 70.8087,65.7438 68.8087,65.2438 66.5,66C 58.1298,70.517 49.7965,75.017 41.5,79.5C 36.8227,77.148 32.156,74.8147 27.5,72.5C 27.5,70.5 27.5,68.5 27.5,66.5C 32.1498,68.8249 36.8165,71.1582 41.5,73.5C 52.1202,68.1895 62.4536,62.3561 72.5,56C 71.0031,53.793 69.0031,53.1264 66.5,54C 58.4487,59.0256 50.1154,63.5256 41.5,67.5C 36.8165,65.1582 32.1498,62.8249 27.5,60.5C 27.5,58.5 27.5,56.5 27.5,54.5C 32.1498,56.8249 36.8165,59.1582 41.5,61.5C 52.1202,56.1895 62.4536,50.3561 72.5,44C 70.8346,42.1599 68.8346,41.4932 66.5,42C 58.4487,47.0256 50.1154,51.5256 41.5,55.5C 36.8165,53.1582 32.1498,50.8249 27.5,48.5C 27.3341,43.4889 27.5007,38.4889 28,33.5C 29.1667,31 31,29.1667 33.5,28C 53.1667,27.3333 72.8333,27.3333 92.5,28C 96,28.8333 98.1667,31 99,34.5C 99.6667,53.8333 99.6667,73.1667 99,92.5C 98.2614,95.5735 96.4281,97.7402 93.5,99C 73.5,99.6667 53.5,99.6667 33.5,99C 31,97.8333 29.1667,96 28,93.5C 27.5007,88.5111 27.3341,83.5111 27.5,78.5 Z"/></g>
<g><path style="opacity:0.987" fill="#fef6f5" d="M 27.5,54.5 C 27.5,52.5 27.5,50.5 27.5,48.5C 32.1498,50.8249 36.8165,53.1582 41.5,55.5C 50.1154,51.5256 58.4487,47.0256 66.5,42C 68.8346,41.4932 70.8346,42.1599 72.5,44C 62.4536,50.3561 52.1202,56.1895 41.5,61.5C 36.8165,59.1582 32.1498,56.8249 27.5,54.5 Z"/></g>
<g><path style="opacity:0.984" fill="#fef5f4" d="M 27.5,66.5 C 27.5,64.5 27.5,62.5 27.5,60.5C 32.1498,62.8249 36.8165,65.1582 41.5,67.5C 50.1154,63.5256 58.4487,59.0256 66.5,54C 69.0031,53.1264 71.0031,53.793 72.5,56C 62.4536,62.3561 52.1202,68.1895 41.5,73.5C 36.8165,71.1582 32.1498,68.8249 27.5,66.5 Z"/></g>
<g><path style="opacity:0.984" fill="#fef5f4" d="M 27.5,78.5 C 27.5,76.5 27.5,74.5 27.5,72.5C 32.156,74.8147 36.8227,77.148 41.5,79.5C 49.7965,75.017 58.1298,70.517 66.5,66C 68.8087,65.2438 70.8087,65.7438 72.5,67.5C 62.6559,74.2583 52.3226,80.2583 41.5,85.5C 36.8165,83.1582 32.1498,80.8249 27.5,78.5 Z"/></g>
</svg>
