<?xml version="1.0" encoding="UTF-8"?>
<!DOCTYPE svg PUBLIC "-//W3C//DTD SVG 1.1//EN" "http://www.w3.org/Graphics/SVG/1.1/DTD/svg11.dtd">
<svg xmlns="http://www.w3.org/2000/svg" version="1.1" width="512px" height="512px" style="shape-rendering:geometricPrecision; text-rendering:geometricPrecision; image-rendering:optimizeQuality; fill-rule:evenodd; clip-rule:evenodd" xmlns:xlink="http://www.w3.org/1999/xlink">
<g><path style="opacity:1" fill="#ced1fb" d="M 159.5,23.5 C 159.5,31.5 159.5,39.5 159.5,47.5C 152.045,49.0762 149.878,53.4096 153,60.5C 154.734,62.4506 156.901,63.4506 159.5,63.5C 159.5,68.8333 159.5,74.1667 159.5,79.5C 152.045,81.0762 149.878,85.4096 153,92.5C 154.734,94.4506 156.901,95.4506 159.5,95.5C 159.5,100.833 159.5,106.167 159.5,111.5C 152.045,113.076 149.878,117.41 153,124.5C 154.734,126.451 156.901,127.451 159.5,127.5C 159.5,132.833 159.5,138.167 159.5,143.5C 152.045,145.076 149.878,149.41 153,156.5C 154.734,158.451 156.901,159.451 159.5,159.5C 159.5,164.833 159.5,170.167 159.5,175.5C 152.045,177.076 149.878,181.41 153,188.5C 154.734,190.451 156.901,191.451 159.5,191.5C 159.5,196.833 159.5,202.167 159.5,207.5C 152.045,209.076 149.878,213.41 153,220.5C 154.734,222.451 156.901,223.451 159.5,223.5C 159.5,231.5 159.5,239.5 159.5,247.5C 164.833,247.5 170.167,247.5 175.5,247.5C 171.715,259.295 169.215,271.295 168,283.5C 173.293,295.894 181.793,298.728 193.5,292C 198.49,287.219 200.323,281.386 199,274.5C 196.339,265.521 193.839,256.521 191.5,247.5C 196.833,247.5 202.167,247.5 207.5,247.5C 207.5,239.5 207.5,231.5 207.5,223.5C 214.962,221.91 217.129,217.576 214,210.5C 212.157,208.829 209.991,207.829 207.5,207.5C 207.5,202.167 207.5,196.833 207.5,191.5C 214.962,189.91 217.129,185.576 214,178.5C 212.157,176.829 209.991,175.829 207.5,175.5C 207.5,170.167 207.5,164.833 207.5,159.5C 214.962,157.91 217.129,153.576 214,146.5C 212.157,144.829 209.991,143.829 207.5,143.5C 207.5,138.167 207.5,132.833 207.5,127.5C 214.962,125.91 217.129,121.576 214,114.5C 212.157,112.829 209.991,111.829 207.5,111.5C 207.5,106.167 207.5,100.833 207.5,95.5C 214.962,93.9097 217.129,89.5764 214,82.5C 212.157,80.8288 209.991,79.8288 207.5,79.5C 207.5,74.1667 207.5,68.8333 207.5,63.5C 214.962,61.9097 217.129,57.5764 214,50.5C 212.157,48.8288 209.991,47.8288 207.5,47.5C 207.5,39.5 207.5,31.5 207.5,23.5C 252.833,23.5 298.167,23.5 343.5,23.5C 330.523,100.523 362.523,132.523 439.5,119.5C 439.5,199.5 439.5,279.5 439.5,359.5C 316.833,359.5 194.167,359.5 71.5,359.5C 71.009,258.79 71.509,158.123 73,57.5C 79.1076,39.7255 91.2743,28.5588 109.5,24C 126.163,23.5001 142.83,23.3334 159.5,23.5 Z"/></g>
<g><path style="opacity:1" fill="#fefffe" d="M 159.5,23.5 C 164.833,23.5 170.167,23.5 175.5,23.5C 175.5,31.5 175.5,39.5 175.5,47.5C 170.167,47.5 164.833,47.5 159.5,47.5C 159.5,39.5 159.5,31.5 159.5,23.5 Z"/></g>
<g><path style="opacity:1" fill="#5152ff" d="M 175.5,23.5 C 180.833,23.5 186.167,23.5 191.5,23.5C 191.5,31.5 191.5,39.5 191.5,47.5C 186.167,47.5 180.833,47.5 175.5,47.5C 175.5,39.5 175.5,31.5 175.5,23.5 Z"/></g>
<g><path style="opacity:1" fill="#fefffe" d="M 191.5,23.5 C 196.833,23.5 202.167,23.5 207.5,23.5C 207.5,31.5 207.5,39.5 207.5,47.5C 202.167,47.5 196.833,47.5 191.5,47.5C 191.5,39.5 191.5,31.5 191.5,23.5 Z"/></g>
<g><path style="opacity:1" fill="#8690fa" d="M 343.5,23.5 C 375.833,55.1667 407.833,87.1667 439.5,119.5C 362.523,132.523 330.523,100.523 343.5,23.5 Z"/></g>
<g><path style="opacity:1" fill="#8690fa" d="M 159.5,47.5 C 164.833,47.5 170.167,47.5 175.5,47.5C 180.833,47.5 186.167,47.5 191.5,47.5C 196.833,47.5 202.167,47.5 207.5,47.5C 209.991,47.8288 212.157,48.8288 214,50.5C 217.129,57.5764 214.962,61.9097 207.5,63.5C 202.167,63.5 196.833,63.5 191.5,63.5C 186.167,63.5 180.833,63.5 175.5,63.5C 170.167,63.5 164.833,63.5 159.5,63.5C 156.901,63.4506 154.734,62.4506 153,60.5C 149.878,53.4096 152.045,49.0762 159.5,47.5 Z"/></g>
<g><path style="opacity:1" fill="#fefffe" d="M 159.5,63.5 C 164.833,63.5 170.167,63.5 175.5,63.5C 175.5,68.8333 175.5,74.1667 175.5,79.5C 170.167,79.5 164.833,79.5 159.5,79.5C 159.5,74.1667 159.5,68.8333 159.5,63.5 Z"/></g>
<g><path style="opacity:1" fill="#5152ff" d="M 175.5,63.5 C 180.833,63.5 186.167,63.5 191.5,63.5C 191.5,68.8333 191.5,74.1667 191.5,79.5C 186.167,79.5 180.833,79.5 175.5,79.5C 175.5,74.1667 175.5,68.8333 175.5,63.5 Z"/></g>
<g><path style="opacity:1" fill="#fefffe" d="M 191.5,63.5 C 196.833,63.5 202.167,63.5 207.5,63.5C 207.5,68.8333 207.5,74.1667 207.5,79.5C 202.167,79.5 196.833,79.5 191.5,79.5C 191.5,74.1667 191.5,68.8333 191.5,63.5 Z"/></g>
<g><path style="opacity:1" fill="#8690fa" d="M 159.5,79.5 C 164.833,79.5 170.167,79.5 175.5,79.5C 180.833,79.5 186.167,79.5 191.5,79.5C 196.833,79.5 202.167,79.5 207.5,79.5C 209.991,79.8288 212.157,80.8288 214,82.5C 217.129,89.5764 214.962,93.9097 207.5,95.5C 202.167,95.5 196.833,95.5 191.5,95.5C 186.167,95.5 180.833,95.5 175.5,95.5C 170.167,95.5 164.833,95.5 159.5,95.5C 156.901,95.4506 154.734,94.4506 153,92.5C 149.878,85.4096 152.045,81.0762 159.5,79.5 Z"/></g>
<g><path style="opacity:1" fill="#fefffe" d="M 159.5,95.5 C 164.833,95.5 170.167,95.5 175.5,95.5C 175.5,100.833 175.5,106.167 175.5,111.5C 170.167,111.5 164.833,111.5 159.5,111.5C 159.5,106.167 159.5,100.833 159.5,95.5 Z"/></g>
<g><path style="opacity:1" fill="#5152ff" d="M 175.5,95.5 C 180.833,95.5 186.167,95.5 191.5,95.5C 191.5,100.833 191.5,106.167 191.5,111.5C 186.167,111.5 180.833,111.5 175.5,111.5C 175.5,106.167 175.5,100.833 175.5,95.5 Z"/></g>
<g><path style="opacity:1" fill="#fefffe" d="M 191.5,95.5 C 196.833,95.5 202.167,95.5 207.5,95.5C 207.5,100.833 207.5,106.167 207.5,111.5C 202.167,111.5 196.833,111.5 191.5,111.5C 191.5,106.167 191.5,100.833 191.5,95.5 Z"/></g>
<g><path style="opacity:1" fill="#8690fa" d="M 159.5,111.5 C 164.833,111.5 170.167,111.5 175.5,111.5C 180.833,111.5 186.167,111.5 191.5,111.5C 196.833,111.5 202.167,111.5 207.5,111.5C 209.991,111.829 212.157,112.829 214,114.5C 217.129,121.576 214.962,125.91 207.5,127.5C 202.167,127.5 196.833,127.5 191.5,127.5C 186.167,127.5 180.833,127.5 175.5,127.5C 170.167,127.5 164.833,127.5 159.5,127.5C 156.901,127.451 154.734,126.451 153,124.5C 149.878,117.41 152.045,113.076 159.5,111.5 Z"/></g>
<g><path style="opacity:1" fill="#fefffe" d="M 159.5,127.5 C 164.833,127.5 170.167,127.5 175.5,127.5C 175.5,132.833 175.5,138.167 175.5,143.5C 170.167,143.5 164.833,143.5 159.5,143.5C 159.5,138.167 159.5,132.833 159.5,127.5 Z"/></g>
<g><path style="opacity:1" fill="#5152ff" d="M 175.5,127.5 C 180.833,127.5 186.167,127.5 191.5,127.5C 191.5,132.833 191.5,138.167 191.5,143.5C 186.167,143.5 180.833,143.5 175.5,143.5C 175.5,138.167 175.5,132.833 175.5,127.5 Z"/></g>
<g><path style="opacity:1" fill="#fefffe" d="M 191.5,127.5 C 196.833,127.5 202.167,127.5 207.5,127.5C 207.5,132.833 207.5,138.167 207.5,143.5C 202.167,143.5 196.833,143.5 191.5,143.5C 191.5,138.167 191.5,132.833 191.5,127.5 Z"/></g>
<g><path style="opacity:1" fill="#8690fa" d="M 159.5,143.5 C 164.833,143.5 170.167,143.5 175.5,143.5C 180.833,143.5 186.167,143.5 191.5,143.5C 196.833,143.5 202.167,143.5 207.5,143.5C 209.991,143.829 212.157,144.829 214,146.5C 217.129,153.576 214.962,157.91 207.5,159.5C 202.167,159.5 196.833,159.5 191.5,159.5C 186.167,159.5 180.833,159.5 175.5,159.5C 170.167,159.5 164.833,159.5 159.5,159.5C 156.901,159.451 154.734,158.451 153,156.5C 149.878,149.41 152.045,145.076 159.5,143.5 Z"/></g>
<g><path style="opacity:1" fill="#fefffe" d="M 159.5,159.5 C 164.833,159.5 170.167,159.5 175.5,159.5C 175.5,164.833 175.5,170.167 175.5,175.5C 170.167,175.5 164.833,175.5 159.5,175.5C 159.5,170.167 159.5,164.833 159.5,159.5 Z"/></g>
<g><path style="opacity:1" fill="#5152ff" d="M 175.5,159.5 C 180.833,159.5 186.167,159.5 191.5,159.5C 191.5,164.833 191.5,170.167 191.5,175.5C 186.167,175.5 180.833,175.5 175.5,175.5C 175.5,170.167 175.5,164.833 175.5,159.5 Z"/></g>
<g><path style="opacity:1" fill="#fefffe" d="M 191.5,159.5 C 196.833,159.5 202.167,159.5 207.5,159.5C 207.5,164.833 207.5,170.167 207.5,175.5C 202.167,175.5 196.833,175.5 191.5,175.5C 191.5,170.167 191.5,164.833 191.5,159.5 Z"/></g>
<g><path style="opacity:1" fill="#8690fa" d="M 159.5,175.5 C 164.833,175.5 170.167,175.5 175.5,175.5C 180.833,175.5 186.167,175.5 191.5,175.5C 196.833,175.5 202.167,175.5 207.5,175.5C 209.991,175.829 212.157,176.829 214,178.5C 217.129,185.576 214.962,189.91 207.5,191.5C 202.167,191.5 196.833,191.5 191.5,191.5C 186.167,191.5 180.833,191.5 175.5,191.5C 170.167,191.5 164.833,191.5 159.5,191.5C 156.901,191.451 154.734,190.451 153,188.5C 149.878,181.41 152.045,177.076 159.5,175.5 Z"/></g>
<g><path style="opacity:1" fill="#fefffe" d="M 159.5,191.5 C 164.833,191.5 170.167,191.5 175.5,191.5C 175.5,196.833 175.5,202.167 175.5,207.5C 170.167,207.5 164.833,207.5 159.5,207.5C 159.5,202.167 159.5,196.833 159.5,191.5 Z"/></g>
<g><path style="opacity:1" fill="#5152ff" d="M 175.5,191.5 C 180.833,191.5 186.167,191.5 191.5,191.5C 191.5,196.833 191.5,202.167 191.5,207.5C 186.167,207.5 180.833,207.5 175.5,207.5C 175.5,202.167 175.5,196.833 175.5,191.5 Z"/></g>
<g><path style="opacity:1" fill="#fefffe" d="M 191.5,191.5 C 196.833,191.5 202.167,191.5 207.5,191.5C 207.5,196.833 207.5,202.167 207.5,207.5C 202.167,207.5 196.833,207.5 191.5,207.5C 191.5,202.167 191.5,196.833 191.5,191.5 Z"/></g>
<g><path style="opacity:1" fill="#8690fa" d="M 159.5,207.5 C 164.833,207.5 170.167,207.5 175.5,207.5C 180.833,207.5 186.167,207.5 191.5,207.5C 196.833,207.5 202.167,207.5 207.5,207.5C 209.991,207.829 212.157,208.829 214,210.5C 217.129,217.576 214.962,221.91 207.5,223.5C 202.167,223.5 196.833,223.5 191.5,223.5C 186.167,223.5 180.833,223.5 175.5,223.5C 170.167,223.5 164.833,223.5 159.5,223.5C 156.901,223.451 154.734,222.451 153,220.5C 149.878,213.41 152.045,209.076 159.5,207.5 Z"/></g>
<g><path style="opacity:1" fill="#fefffe" d="M 159.5,223.5 C 164.833,223.5 170.167,223.5 175.5,223.5C 175.5,231.5 175.5,239.5 175.5,247.5C 170.167,247.5 164.833,247.5 159.5,247.5C 159.5,239.5 159.5,231.5 159.5,223.5 Z"/></g>
<g><path style="opacity:1" fill="#5152ff" d="M 175.5,223.5 C 180.833,223.5 186.167,223.5 191.5,223.5C 191.5,231.5 191.5,239.5 191.5,247.5C 186.167,247.5 180.833,247.5 175.5,247.5C 175.5,239.5 175.5,231.5 175.5,223.5 Z"/></g>
<g><path style="opacity:1" fill="#fefffe" d="M 191.5,223.5 C 196.833,223.5 202.167,223.5 207.5,223.5C 207.5,231.5 207.5,239.5 207.5,247.5C 202.167,247.5 196.833,247.5 191.5,247.5C 191.5,239.5 191.5,231.5 191.5,223.5 Z"/></g>
<g><path style="opacity:1" fill="#8791fa" d="M 175.5,247.5 C 180.833,247.5 186.167,247.5 191.5,247.5C 193.839,256.521 196.339,265.521 199,274.5C 200.323,281.386 198.49,287.219 193.5,292C 181.793,298.728 173.293,295.894 168,283.5C 169.215,271.295 171.715,259.295 175.5,247.5 Z"/></g>
<g><path style="opacity:1" fill="#5153fe" d="M 71.5,359.5 C 194.167,359.5 316.833,359.5 439.5,359.5C 439.667,389.502 439.5,419.502 439,449.5C 433.833,469.333 421.333,481.833 401.5,487C 304.167,487.667 206.833,487.667 109.5,487C 89.6667,481.833 77.1667,469.333 72,449.5C 71.5,419.502 71.3334,389.502 71.5,359.5 Z"/></g>
<g><path style="opacity:1" fill="#fcfcff" d="M 172.5,383.5 C 184.838,383.333 197.171,383.5 209.5,384C 214.599,385.695 216.432,389.195 215,394.5C 206.295,412.078 197.461,429.578 188.5,447C 196.577,447.098 204.577,447.765 212.5,449C 216.5,453.333 216.5,457.667 212.5,462C 199.236,463.611 185.903,463.944 172.5,463C 168.139,460.774 166.639,457.274 168,452.5C 176.705,434.922 185.539,417.422 194.5,400C 186.397,399.937 178.397,399.27 170.5,398C 166.128,392.408 166.794,387.575 172.5,383.5 Z"/></g>
<g><path style="opacity:1" fill="#fdfdff" d="M 236.5,383.5 C 249.907,383.056 263.24,383.556 276.5,385C 279.769,388.453 280.269,392.286 278,396.5C 276.829,397.893 275.329,398.727 273.5,399C 270.183,399.498 266.85,399.665 263.5,399.5C 263.5,415.5 263.5,431.5 263.5,447.5C 267.936,447.21 272.27,447.71 276.5,449C 279.769,452.453 280.269,456.286 278,460.5C 276.829,461.893 275.329,462.727 273.5,463C 261.167,463.667 248.833,463.667 236.5,463C 230.741,459.108 230.074,454.441 234.5,449C 238.7,447.633 243.033,447.133 247.5,447.5C 247.5,431.5 247.5,415.5 247.5,399.5C 243.818,399.665 240.152,399.499 236.5,399C 232.139,396.774 230.639,393.274 232,388.5C 233.025,386.313 234.525,384.646 236.5,383.5 Z"/></g>
<g><path style="opacity:1" fill="#fdfdff" d="M 300.5,383.5 C 308.507,383.334 316.507,383.5 324.5,384C 341.417,390.001 346.917,401.501 341,418.5C 334.051,429.103 324.218,433.437 311.5,431.5C 311.92,441.247 311.42,450.914 310,460.5C 305.667,464.5 301.333,464.5 297,460.5C 296.667,459.5 296.333,458.5 296,457.5C 295.333,434.5 295.333,411.5 296,388.5C 297.025,386.313 298.525,384.646 300.5,383.5 Z"/></g>
<g><path style="opacity:1" fill="#5455ff" d="M 311.5,399.5 C 315.936,399.21 320.27,399.71 324.5,401C 328.5,405.333 328.5,409.667 324.5,414C 320.27,415.29 315.936,415.79 311.5,415.5C 311.5,410.167 311.5,404.833 311.5,399.5 Z"/></g>
</svg>
